<svg width="637" height="650" viewBox="0 0 637 650" fill="none" xmlns="http://www.w3.org/2000/svg">
<mask id="path-1-outside-1_26_62742" maskUnits="userSpaceOnUse" x="43.2144" y="71.1707" width="549" height="507" fill="currentColor">
<rect fill="white" x="43.2144" y="71.1707" width="549" height="507"/>
<path d="M175.23 122.216C198.494 116.233 221.228 124.209 240.542 135.36C263.846 149.211 277.969 170.042 288.387 191.113L337.349 292.284L336.64 293.511L374.577 378.887L375.514 378.636C375.824 376.041 377.413 372.6 380.501 367.252C398.687 335.753 446.328 312.941 495.061 341.077C545.28 370.071 556.087 428.213 529.324 474.569C513.368 502.204 488.808 522.098 460.526 527.165C437.262 533.147 414.527 525.173 395.212 514.021C371.909 500.171 357.786 479.338 347.368 458.267L298.406 357.097L299.114 355.869L261.178 270.494L260.241 270.745C259.931 273.34 258.341 276.78 255.253 282.129C237.068 313.627 189.427 336.44 140.694 308.305C90.4746 279.31 79.6674 221.168 106.431 174.811C122.386 147.176 146.948 127.282 175.23 122.216ZM467.39 399.984C453.127 391.749 431.373 393.057 419.878 412.967C409.242 431.39 416.049 451.168 431.5 460.09C451.707 471.756 471.074 461.542 479.309 447.279C488.573 431.233 484.922 410.106 467.39 399.984ZM204.254 189.292C184.048 177.626 164.681 187.839 156.446 202.102C147.181 218.149 150.833 239.275 168.365 249.397C182.628 257.632 204.382 256.324 215.876 236.415C226.513 217.991 219.706 198.213 204.254 189.292Z"/>
</mask>
<path d="M175.23 122.216C198.494 116.233 221.228 124.209 240.542 135.36C263.846 149.211 277.969 170.042 288.387 191.113L337.349 292.284L336.64 293.511L374.577 378.887L375.514 378.636C375.824 376.041 377.413 372.6 380.501 367.252C398.687 335.753 446.328 312.941 495.061 341.077C545.28 370.071 556.087 428.213 529.324 474.569C513.368 502.204 488.808 522.098 460.526 527.165C437.262 533.147 414.527 525.173 395.212 514.021C371.909 500.171 357.786 479.338 347.368 458.267L298.406 357.097L299.114 355.869L261.178 270.494L260.241 270.745C259.931 273.34 258.341 276.78 255.253 282.129C237.068 313.627 189.427 336.44 140.694 308.305C90.4746 279.31 79.6674 221.168 106.431 174.811C122.386 147.176 146.948 127.282 175.23 122.216ZM467.39 399.984C453.127 391.749 431.373 393.057 419.878 412.967C409.242 431.39 416.049 451.168 431.5 460.09C451.707 471.756 471.074 461.542 479.309 447.279C488.573 431.233 484.922 410.106 467.39 399.984ZM204.254 189.292C184.048 177.626 164.681 187.839 156.446 202.102C147.181 218.149 150.833 239.275 168.365 249.397C182.628 257.632 204.382 256.324 215.876 236.415C226.513 217.991 219.706 198.213 204.254 189.292Z" fill="currentColor"/>
<path d="M175.23 122.216L183.742 169.734L185.512 169.417L187.253 168.97L175.23 122.216ZM240.542 135.36L265.207 93.8615L264.945 93.7054L264.68 93.5526L240.542 135.36ZM288.387 191.113L331.841 170.083L331.752 169.899L331.661 169.716L288.387 191.113ZM337.349 292.284L379.144 316.443L391.95 294.288L380.803 271.254L337.349 292.284ZM336.64 293.511L294.845 269.352L282.539 290.642L292.524 313.113L336.64 293.511ZM374.577 378.887L330.461 398.489L347.212 436.188L387.061 425.52L374.577 378.887ZM375.514 378.636L387.998 425.269L419.577 416.815L423.449 384.354L375.514 378.636ZM380.501 367.252L338.694 343.114L338.694 343.114L380.501 367.252ZM495.061 341.077L519.199 299.269L519.198 299.269L495.061 341.077ZM529.324 474.569L571.131 498.707L571.131 498.707L529.324 474.569ZM460.526 527.165L452.013 479.646L450.244 479.963L448.503 480.411L460.526 527.165ZM395.212 514.021L370.548 555.52L370.81 555.676L371.075 555.829L395.212 514.021ZM347.368 458.267L303.914 479.297L304.003 479.481L304.093 479.664L347.368 458.267ZM298.406 357.097L256.579 332.992L243.822 355.129L254.952 378.127L298.406 357.097ZM299.114 355.869L340.94 379.974L353.199 358.702L343.23 336.266L299.114 355.869ZM261.178 270.494L305.294 250.891L288.543 213.193L248.694 223.861L261.178 270.494ZM260.241 270.745L247.757 224.112L216.177 232.566L212.305 265.028L260.241 270.745ZM255.253 282.129L297.061 306.266L297.061 306.266L255.253 282.129ZM140.694 308.305L116.556 350.112L116.556 350.112L140.694 308.305ZM106.431 174.811L64.6236 150.674L64.6236 150.674L106.431 174.811ZM467.39 399.984L491.528 358.177L491.527 358.176L467.39 399.984ZM419.878 412.967L378.071 388.829L378.071 388.829L419.878 412.967ZM431.5 460.09L407.363 501.897L407.363 501.897L431.5 460.09ZM479.309 447.279L521.116 471.417L521.117 471.417L479.309 447.279ZM204.254 189.292L228.392 147.484L228.392 147.484L204.254 189.292ZM156.446 202.102L114.638 177.965L114.638 177.965L156.446 202.102ZM168.365 249.397L144.227 291.205L144.228 291.205L168.365 249.397ZM215.876 236.415L257.684 260.552L257.684 260.552L215.876 236.415ZM175.23 122.216L187.253 168.97C192.409 167.644 201.323 168.46 216.405 177.168L240.542 135.36L264.68 93.5526C241.132 79.9571 204.579 64.8229 163.207 75.4615L175.23 122.216ZM240.542 135.36L215.878 176.859C227.76 183.921 236.624 195.342 245.113 212.51L288.387 191.113L331.661 169.716C319.313 144.742 299.932 114.5 265.207 93.8615L240.542 135.36ZM288.387 191.113L244.933 212.143L293.895 313.314L337.349 292.284L380.803 271.254L331.841 170.083L288.387 191.113ZM337.349 292.284L295.554 268.125L294.845 269.352L336.64 293.511L378.435 317.669L379.144 316.443L337.349 292.284ZM336.64 293.511L292.524 313.113L330.461 398.489L374.577 378.887L418.693 359.284L380.756 273.908L336.64 293.511ZM374.577 378.887L387.061 425.52L387.998 425.269L375.514 378.636L363.03 332.003L362.093 332.253L374.577 378.887ZM375.514 378.636L423.449 384.354C423.104 387.246 422.512 389.49 422.069 390.907C421.628 392.319 421.23 393.246 421.093 393.554C420.95 393.877 420.936 393.873 421.164 393.441C421.386 393.021 421.747 392.363 422.309 391.389L380.501 367.252L338.694 343.114C336.243 347.359 329.236 359.027 327.579 372.917L375.514 378.636ZM380.501 367.252L422.309 391.389C425.147 386.473 431.537 380.656 440.283 378.015C447.889 375.718 458.186 375.531 470.924 382.885L495.061 341.077L519.198 299.269C444.931 256.392 368.754 291.049 338.694 343.114L380.501 367.252ZM495.061 341.077L470.923 382.884C495.662 397.167 502.373 424.699 487.516 450.432L529.324 474.569L571.131 498.707C609.802 431.727 594.898 342.975 519.199 299.269L495.061 341.077ZM529.324 474.569L487.516 450.432C476.882 468.85 463.116 477.657 452.013 479.646L460.526 527.165L469.038 574.684C514.5 566.539 549.855 535.559 571.131 498.707L529.324 474.569ZM460.526 527.165L448.503 480.411C443.346 481.737 434.43 480.92 419.35 472.214L395.212 514.021L371.075 555.829C394.625 569.425 431.178 584.558 472.549 573.919L460.526 527.165ZM395.212 514.021L419.877 472.523C407.995 465.46 399.131 454.039 390.642 436.871L347.368 458.267L304.093 479.664C316.441 504.637 335.822 534.881 370.548 555.52L395.212 514.021ZM347.368 458.267L390.822 437.238L341.86 336.068L298.406 357.097L254.952 378.127L303.914 479.297L347.368 458.267ZM298.406 357.097L340.232 381.202L340.94 379.974L299.114 355.869L257.287 331.764L256.579 332.992L298.406 357.097ZM299.114 355.869L343.23 336.266L305.294 250.891L261.178 270.494L217.062 290.097L254.998 375.472L299.114 355.869ZM261.178 270.494L248.694 223.861L247.757 224.112L260.241 270.745L272.725 317.378L273.662 317.127L261.178 270.494ZM260.241 270.745L212.305 265.028C212.65 262.135 213.243 259.89 213.685 258.473C214.126 257.061 214.525 256.134 214.662 255.826C214.805 255.503 214.819 255.507 214.591 255.939C214.369 256.36 214.008 257.018 213.446 257.991L255.253 282.129L297.061 306.266C299.511 302.023 306.519 290.354 308.176 276.462L260.241 270.745ZM255.253 282.129L213.446 257.991C210.607 262.908 204.217 268.725 195.471 271.366C187.865 273.663 177.569 273.851 164.831 266.497L140.694 308.305L116.556 350.112C190.824 392.99 267.001 358.331 297.061 306.266L255.253 282.129ZM140.694 308.305L164.831 266.497C140.093 252.214 133.382 224.681 148.239 198.949L106.431 174.811L64.6236 150.674C25.9528 217.654 40.8562 306.407 116.556 350.112L140.694 308.305ZM106.431 174.811L148.239 198.949C158.872 180.531 172.639 171.723 183.742 169.734L175.23 122.216L166.718 74.6969C121.256 82.8407 85.9005 113.821 64.6236 150.674L106.431 174.811ZM467.39 399.984L491.527 358.176C458.905 339.343 405.473 341.367 378.071 388.829L419.878 412.967L461.686 437.104C461.313 437.749 460.294 439.16 458.36 440.553C456.461 441.921 454.351 442.788 452.35 443.201C448.775 443.939 445.779 443.25 443.253 441.792L467.39 399.984ZM419.878 412.967L378.071 388.829C353.786 430.892 369.374 479.965 407.363 501.897L431.5 460.09L455.638 418.282C458.681 420.039 461.316 423.162 462.448 427.271C463.69 431.78 462.609 435.505 461.686 437.104L419.878 412.967ZM431.5 460.09L407.363 501.897C455.862 529.898 502.767 503.198 521.116 471.417L479.309 447.279L437.502 423.141C438.756 420.968 440.767 418.931 444.242 417.74C446.203 417.068 448.533 416.729 450.957 416.962C453.424 417.199 455.04 417.937 455.638 418.282L431.5 460.09ZM479.309 447.279L521.117 471.417C541.948 435.336 535.091 383.328 491.528 358.177L467.39 399.984L443.253 441.792C440.029 439.93 437.272 436.276 436.327 432.122C435.496 428.473 436.225 425.353 437.502 423.142L479.309 447.279ZM204.254 189.292L228.392 147.484C179.893 119.483 132.987 146.184 114.638 177.965L156.446 202.102L198.253 226.24C196.999 228.413 194.988 230.45 191.513 231.641C189.552 232.313 187.221 232.653 184.797 232.42C182.331 232.182 180.714 231.444 180.117 231.099L204.254 189.292ZM156.446 202.102L114.638 177.965C93.8073 214.045 100.664 266.053 144.227 291.205L168.365 249.397L192.502 207.59C195.726 209.451 198.483 213.105 199.428 217.26C200.259 220.909 199.53 224.028 198.253 226.24L156.446 202.102ZM168.365 249.397L144.228 291.205C176.85 310.039 230.282 308.014 257.684 260.552L215.876 236.415L174.069 212.277C174.441 211.632 175.461 210.222 177.395 208.828C179.294 207.461 181.404 206.593 183.405 206.181C186.98 205.443 189.976 206.131 192.502 207.589L168.365 249.397ZM215.876 236.415L257.684 260.552C281.969 218.489 266.38 169.417 228.392 147.484L204.254 189.292L180.117 231.099C177.074 229.343 174.439 226.22 173.307 222.111C172.065 217.602 173.146 213.877 174.069 212.277L215.876 236.415Z" fill="white" mask="url(#path-1-outside-1_26_62742)"/>
<mask id="path-3-outside-2_26_62742" maskUnits="userSpaceOnUse" x="-38.9736" y="-39.9343" width="713.575" height="728.948" fill="currentColor">
<rect fill="white" x="-38.9736" y="-39.9343" width="713.575" height="728.948"/>
<path d="M421.902 99.9164C438.715 117.073 443.176 140.749 443.176 163.052C442.832 190.159 431.853 212.805 418.814 232.363L355.679 325.349L354.262 325.349L299.292 400.891L299.978 401.578C302.38 400.548 306.155 400.206 312.331 400.206C348.702 400.206 392.279 430.057 392.279 486.33C392.279 544.318 347.33 582.748 293.803 582.748C261.892 582.748 232.383 571.425 213.854 549.465C197.041 532.308 192.58 508.633 192.58 486.33C192.923 459.223 203.904 436.577 216.942 417.019L280.077 324.032L281.495 324.03L336.464 248.49L335.778 247.803C333.376 248.833 329.602 249.176 323.426 249.176C287.054 249.176 243.477 219.324 243.477 163.051C243.478 105.063 288.427 66.6336 341.954 66.6336C373.865 66.6336 403.374 77.9566 421.902 99.9164ZM327.428 491.82C327.428 475.35 315.419 457.165 292.429 457.165C271.156 457.165 257.431 472.948 257.431 490.791C257.431 514.123 275.959 525.789 292.429 525.789C310.958 525.789 327.428 512.064 327.428 491.82ZM378.325 158.591C378.325 135.259 359.796 123.592 343.326 123.592C324.798 123.592 308.328 137.317 308.328 157.561C308.328 174.031 320.337 192.218 343.327 192.218C364.6 192.218 378.325 176.434 378.325 158.591Z"/>
</mask>
<path d="M421.902 99.9164C438.715 117.073 443.176 140.749 443.176 163.052C442.832 190.159 431.853 212.805 418.814 232.363L355.679 325.349L354.262 325.349L299.292 400.891L299.978 401.578C302.38 400.548 306.155 400.206 312.331 400.206C348.702 400.206 392.279 430.057 392.279 486.33C392.279 544.318 347.33 582.748 293.803 582.748C261.892 582.748 232.383 571.425 213.854 549.465C197.041 532.308 192.58 508.633 192.58 486.33C192.923 459.223 203.904 436.577 216.942 417.019L280.077 324.032L281.495 324.03L336.464 248.49L335.778 247.803C333.376 248.833 329.602 249.176 323.426 249.176C287.054 249.176 243.477 219.324 243.477 163.051C243.478 105.063 288.427 66.6336 341.954 66.6336C373.865 66.6336 403.374 77.9566 421.902 99.9164ZM327.428 491.82C327.428 475.35 315.419 457.165 292.429 457.165C271.156 457.165 257.431 472.948 257.431 490.791C257.431 514.123 275.959 525.789 292.429 525.789C310.958 525.789 327.428 512.064 327.428 491.82ZM378.325 158.591C378.325 135.259 359.796 123.592 343.326 123.592C324.798 123.592 308.328 137.317 308.328 157.561C308.328 174.031 320.337 192.218 343.327 192.218C364.6 192.218 378.325 176.434 378.325 158.591Z" fill="currentColor"/>
<path d="M421.902 99.9164L385.006 131.048L386.165 132.422L387.424 133.706L421.902 99.9164ZM443.176 163.052L491.447 163.663L491.451 163.357L491.451 163.052L443.176 163.052ZM418.814 232.363L458.753 259.481L458.868 259.311L458.982 259.141L418.814 232.363ZM355.679 325.349L355.655 373.625L381.244 373.638L395.618 352.467L355.679 325.349ZM354.262 325.349L354.287 277.074L329.697 277.061L315.228 296.944L354.262 325.349ZM299.292 400.891L260.258 372.487L235.985 405.843L265.149 435.019L299.292 400.891ZM299.978 401.578L265.835 435.706L288.946 458.827L318.995 445.949L299.978 401.578ZM312.331 400.206L312.331 351.93L312.331 351.93L312.331 400.206ZM392.279 486.33L440.554 486.33L440.554 486.33L392.279 486.33ZM293.803 582.748L293.803 631.023L293.803 631.023L293.803 582.748ZM213.854 549.465L250.75 518.333L249.591 516.959L248.333 515.675L213.854 549.465ZM192.58 486.33L144.309 485.718L144.305 486.024L144.305 486.33L192.58 486.33ZM216.942 417.019L177.003 389.902L176.888 390.071L176.775 390.241L216.942 417.019ZM280.077 324.032L280.039 275.756L254.49 275.776L240.138 296.914L280.077 324.032ZM281.495 324.03L281.533 372.306L306.084 372.286L320.529 352.435L281.495 324.03ZM336.464 248.49L375.498 276.894L399.771 243.538L370.607 214.362L336.464 248.49ZM335.778 247.803L369.921 213.675L346.81 190.554L316.761 203.432L335.778 247.803ZM323.426 249.176L323.426 297.451L323.426 297.451L323.426 249.176ZM243.477 163.051L195.202 163.051L195.202 163.051L243.477 163.051ZM341.954 66.6336L341.954 18.3584L341.954 18.3584L341.954 66.6336ZM327.428 491.82L375.703 491.82L375.703 491.819L327.428 491.82ZM292.429 457.165L292.429 408.889L292.429 408.889L292.429 457.165ZM257.431 490.791L209.156 490.791L209.156 490.791L257.431 490.791ZM292.429 525.789L292.428 574.064L292.429 574.064L292.429 525.789ZM378.325 158.591L426.6 158.591L426.6 158.591L378.325 158.591ZM343.326 123.592L343.326 75.317L343.326 75.317L343.326 123.592ZM308.328 157.561L260.053 157.561L260.053 157.561L308.328 157.561ZM343.327 192.218L343.327 240.493L343.327 240.493L343.327 192.218ZM421.902 99.9164L387.424 133.706C391.15 137.508 394.9 145.637 394.9 163.052L443.176 163.052L491.451 163.052C491.451 135.86 486.281 96.6373 456.381 66.1272L421.902 99.9164ZM443.176 163.052L394.904 162.441C394.729 176.263 389.27 189.65 378.647 205.585L418.814 232.363L458.982 259.141C474.436 235.96 490.935 204.054 491.447 163.663L443.176 163.052ZM418.814 232.363L378.875 205.245L315.74 298.232L355.679 325.349L395.618 352.467L458.753 259.481L418.814 232.363ZM355.679 325.349L355.704 277.074L354.287 277.074L354.262 325.349L354.238 373.624L355.655 373.625L355.679 325.349ZM354.262 325.349L315.228 296.944L260.258 372.487L299.292 400.891L338.326 429.296L393.297 353.753L354.262 325.349ZM299.292 400.891L265.149 435.019L265.835 435.706L299.978 401.578L334.122 367.45L333.435 366.763L299.292 400.891ZM299.978 401.578L318.995 445.949C316.314 447.098 314.073 447.707 312.624 448.033C311.18 448.357 310.177 448.475 309.842 448.51C309.492 448.548 309.489 448.534 309.978 448.515C310.454 448.497 311.206 448.481 312.331 448.481L312.331 400.206L312.331 351.93C307.441 351.93 293.824 351.693 280.962 357.206L299.978 401.578ZM312.331 400.206L312.331 448.481C318.008 448.481 326.24 451.106 332.901 457.36C338.693 462.798 344.004 471.622 344.004 486.33L392.279 486.33L440.554 486.33C440.554 400.573 372.451 351.931 312.331 351.93L312.331 400.206ZM392.279 486.33L344.004 486.33C344.004 514.895 323.516 534.473 293.802 534.473L293.803 582.748L293.803 631.023C371.144 631.023 440.554 573.74 440.554 486.33L392.279 486.33ZM293.803 582.748L293.803 534.473C272.535 534.473 258.024 526.954 250.75 518.333L213.854 549.465L176.958 580.596C206.741 615.895 251.249 631.023 293.803 631.023L293.803 582.748ZM213.854 549.465L248.333 515.675C244.606 511.872 240.855 503.742 240.855 486.33L192.58 486.33L144.305 486.33C144.305 513.523 149.476 552.744 179.375 583.254L213.854 549.465ZM192.58 486.33L240.851 486.941C241.026 473.12 246.485 459.734 257.11 443.797L216.942 417.019L176.775 390.241C161.322 413.42 144.82 445.326 144.309 485.718L192.58 486.33ZM216.942 417.019L256.882 444.136L320.016 351.149L280.077 324.032L240.138 296.914L177.003 389.902L216.942 417.019ZM280.077 324.032L280.115 372.307L281.533 372.306L281.495 324.03L281.457 275.755L280.039 275.756L280.077 324.032ZM281.495 324.03L320.529 352.435L375.498 276.894L336.464 248.49L297.43 220.085L242.461 295.626L281.495 324.03ZM336.464 248.49L370.607 214.362L369.921 213.675L335.778 247.803L301.635 281.931L302.321 282.618L336.464 248.49ZM335.778 247.803L316.761 203.432C319.439 202.284 321.679 201.675 323.128 201.35C324.571 201.025 325.574 200.907 325.909 200.872C326.26 200.834 326.263 200.848 325.775 200.867C325.3 200.885 324.55 200.901 323.426 200.901L323.426 249.176L323.426 297.451C328.326 297.451 341.936 297.686 354.795 292.175L335.778 247.803ZM323.426 249.176L323.426 200.901C317.749 200.901 309.516 198.276 302.856 192.022C297.063 186.583 291.753 177.759 291.753 163.051L243.477 163.051L195.202 163.051C195.202 248.808 263.305 297.451 323.426 297.451L323.426 249.176ZM243.477 163.051L291.753 163.051C291.753 134.487 312.241 114.909 341.954 114.909L341.954 66.6336L341.954 18.3584C264.613 18.3584 195.203 75.6402 195.202 163.051L243.477 163.051ZM341.954 66.6336L341.954 114.909C363.222 114.909 377.732 122.427 385.006 131.048L421.902 99.9164L458.798 68.7851C429.015 33.4859 384.507 18.3584 341.954 18.3584L341.954 66.6336ZM327.428 491.82L375.703 491.819C375.703 454.151 347.233 408.889 292.429 408.889L292.429 457.165L292.429 505.44C291.684 505.44 289.954 505.262 287.78 504.284C285.646 503.323 283.839 501.929 282.482 500.403C280.055 497.675 279.153 494.737 279.153 491.82L327.428 491.82ZM292.429 457.165L292.429 408.889C243.859 408.89 209.156 446.926 209.156 490.791L257.431 490.791L305.707 490.791C305.707 494.303 304.32 498.147 301.327 501.182C298.042 504.513 294.276 505.44 292.43 505.44L292.429 457.165ZM257.431 490.791L209.156 490.791C209.156 546.791 255.729 574.064 292.428 574.064L292.429 525.789L292.43 477.514C294.939 477.514 297.709 478.237 300.478 480.651C302.04 482.014 303.5 483.862 304.51 486.078C305.538 488.332 305.707 490.101 305.707 490.79L257.431 490.791ZM292.429 525.789L292.429 574.064C334.091 574.064 375.703 542.122 375.703 491.82L327.428 491.82L279.153 491.82C279.153 488.097 280.939 483.883 284.064 480.987C286.809 478.443 289.875 477.514 292.429 477.514L292.429 525.789ZM378.325 158.591L426.6 158.591C426.6 102.59 380.025 75.317 343.326 75.317L343.326 123.592L343.326 171.867C340.817 171.867 338.048 171.144 335.279 168.731C333.716 167.368 332.257 165.52 331.247 163.304C330.219 161.05 330.05 159.281 330.05 158.591L378.325 158.591ZM343.326 123.592L343.326 75.317C301.664 75.3174 260.054 107.26 260.053 157.561L308.328 157.561L356.603 157.562C356.603 161.284 354.817 165.498 351.692 168.395C348.947 170.938 345.881 171.867 343.327 171.867L343.326 123.592ZM308.328 157.561L260.053 157.561C260.053 195.227 288.52 240.493 343.327 240.493L343.327 192.218L343.327 143.943C344.072 143.943 345.803 144.12 347.977 145.099C350.112 146.06 351.918 147.454 353.275 148.98C355.701 151.707 356.603 154.645 356.603 157.561L308.328 157.561ZM343.327 192.218L343.327 240.493C391.897 240.493 426.6 202.456 426.6 158.591L378.325 158.591L330.05 158.591C330.05 155.078 331.437 151.234 334.43 148.2C337.714 144.869 341.48 143.943 343.327 143.943L343.327 192.218Z" fill="white" mask="url(#path-3-outside-2_26_62742)"/>
<mask id="path-5-outside-3_26_62742" maskUnits="userSpaceOnUse" x="-38.7891" y="-39.9212" width="713.575" height="728.948" fill="currentColor">
<rect fill="white" x="-38.7891" y="-39.9212" width="713.575" height="728.948"/>
<path d="M564.572 302.384C558.121 325.523 539.847 341.224 520.532 352.375C496.885 365.632 471.783 367.446 448.326 365.934L415.501 364.5L373.881 359.984L242.614 346.689L242.362 347.626C244.455 349.191 246.639 352.288 249.727 357.637C267.913 389.135 263.849 441.8 215.116 469.936C164.897 498.93 109.14 479.218 82.3767 432.862C66.4215 405.227 61.473 374.01 71.2264 346.984C77.6775 323.845 95.9509 308.144 115.266 296.992C138.913 283.736 164.015 281.922 187.472 283.435L393.241 302.47L393.436 301.742C391.344 300.177 389.158 297.079 386.07 291.731C367.885 260.232 371.949 207.567 420.682 179.431C470.902 150.437 526.658 170.15 553.422 216.506C569.377 244.141 574.325 275.358 564.572 302.384ZM177.935 416.519C192.199 408.285 201.944 388.791 190.45 368.882C179.813 350.458 159.281 346.464 143.829 355.385C123.622 367.051 122.783 388.931 131.018 403.195C140.283 419.241 160.404 426.641 177.935 416.519ZM491.97 293.983C512.176 282.317 513.015 260.437 504.78 246.174C495.516 230.127 475.394 222.726 457.862 232.848C443.599 241.083 433.854 260.577 445.349 280.487C455.986 298.91 476.518 302.904 491.97 293.983Z"/>
</mask>
<path d="M564.572 302.384C558.121 325.523 539.847 341.224 520.532 352.375C496.885 365.632 471.783 367.446 448.326 365.934L415.501 364.5L373.881 359.984L242.614 346.689L242.362 347.626C244.455 349.191 246.639 352.288 249.727 357.637C267.913 389.135 263.849 441.8 215.116 469.936C164.897 498.93 109.14 479.218 82.3767 432.862C66.4215 405.227 61.473 374.01 71.2264 346.984C77.6775 323.845 95.9509 308.144 115.266 296.992C138.913 283.736 164.015 281.922 187.472 283.435L393.241 302.47L393.436 301.742C391.344 300.177 389.158 297.079 386.07 291.731C367.885 260.232 371.949 207.567 420.682 179.431C470.902 150.437 526.658 170.15 553.422 216.506C569.377 244.141 574.325 275.358 564.572 302.384ZM177.935 416.519C192.199 408.285 201.944 388.791 190.45 368.882C179.813 350.458 159.281 346.464 143.829 355.385C123.622 367.051 122.783 388.931 131.018 403.195C140.283 419.241 160.404 426.641 177.935 416.519ZM491.97 293.983C512.176 282.317 513.015 260.437 504.78 246.174C495.516 230.127 475.394 222.726 457.862 232.848C443.599 241.083 433.854 260.577 445.349 280.487C455.986 298.91 476.518 302.904 491.97 293.983Z" fill="currentColor"/>
<path d="M564.572 302.384L519.163 285.997L518.553 287.688L518.07 289.42L564.572 302.384ZM520.532 352.375L544.138 394.485L544.405 394.336L544.669 394.183L520.532 352.375ZM448.326 365.934L451.433 317.759L450.933 317.726L450.433 317.704L448.326 365.934ZM415.501 364.5L410.294 412.493L411.84 412.661L413.394 412.729L415.501 364.5ZM373.881 359.984L379.088 311.991L378.917 311.972L378.745 311.955L373.881 359.984ZM242.614 346.689L247.479 298.659L206.623 294.521L195.986 334.184L242.614 346.689ZM242.362 347.626L195.735 335.121L187.267 366.697L213.444 386.281L242.362 347.626ZM249.727 357.637L291.535 333.499L291.535 333.499L249.727 357.637ZM215.116 469.936L239.253 511.744L239.253 511.743L215.116 469.936ZM82.3767 432.862L40.5692 457L40.5692 457L82.3767 432.862ZM71.2264 346.984L116.635 363.371L117.245 361.68L117.728 359.949L71.2264 346.984ZM115.266 296.992L91.6594 254.883L91.3928 255.032L91.1281 255.185L115.266 296.992ZM187.472 283.435L191.919 235.365L191.25 235.303L190.579 235.259L187.472 283.435ZM393.241 302.47L388.795 350.54L429.354 354.292L439.878 314.942L393.241 302.47ZM393.436 301.742L440.072 314.215L448.512 282.656L422.355 263.087L393.436 301.742ZM386.07 291.731L344.263 315.868L344.263 315.868L386.07 291.731ZM420.682 179.431L396.545 137.623L396.545 137.623L420.682 179.431ZM553.422 216.506L595.229 192.368L595.229 192.368L553.422 216.506ZM177.935 416.519L202.072 458.327L202.073 458.327L177.935 416.519ZM190.45 368.882L232.257 344.744L232.257 344.744L190.45 368.882ZM143.829 355.385L119.691 313.577L119.691 313.578L143.829 355.385ZM131.018 403.195L89.2107 427.332L89.211 427.333L131.018 403.195ZM491.97 293.983L516.107 335.791L516.107 335.791L491.97 293.983ZM504.78 246.174L546.588 222.036L546.588 222.036L504.78 246.174ZM457.862 232.848L433.725 191.041L433.725 191.041L457.862 232.848ZM445.349 280.487L403.541 304.624L403.541 304.624L445.349 280.487ZM564.572 302.384L518.07 289.42C516.641 294.548 511.476 301.86 496.394 310.568L520.532 352.375L544.669 394.183C568.218 380.587 599.601 356.498 611.074 315.349L564.572 302.384ZM520.532 352.375L496.925 310.266C484.868 317.025 470.545 318.991 451.433 317.759L448.326 365.934L445.219 414.109C473.021 415.902 508.902 414.238 544.138 394.485L520.532 352.375ZM448.326 365.934L450.433 317.704L417.607 316.271L415.501 364.5L413.394 412.729L446.219 414.163L448.326 365.934ZM415.501 364.5L420.708 316.506L379.088 311.991L373.881 359.984L368.674 407.978L410.294 412.493L415.501 364.5ZM373.881 359.984L378.745 311.955L247.479 298.659L242.614 346.689L237.749 394.718L369.016 408.014L373.881 359.984ZM242.614 346.689L195.986 334.184L195.735 335.121L242.362 347.626L288.99 360.131L289.241 359.194L242.614 346.689ZM242.362 347.626L213.444 386.281C211.111 384.535 209.463 382.9 208.457 381.808C207.455 380.72 206.851 379.911 206.653 379.639C206.445 379.353 206.455 379.344 206.715 379.757C206.969 380.159 207.358 380.801 207.92 381.775L249.727 357.637L291.535 333.499C289.085 329.256 282.483 317.352 271.281 308.971L242.362 347.626ZM249.727 357.637L207.92 381.775C210.758 386.691 212.601 395.133 210.515 404.028C208.702 411.763 203.716 420.774 190.978 428.128L215.116 469.936L239.253 511.743C313.52 468.865 321.595 385.565 291.535 333.499L249.727 357.637ZM215.116 469.936L190.978 428.128C166.24 442.411 139.041 434.457 124.184 408.725L82.3767 432.862L40.5692 457C79.2401 523.98 163.553 555.449 239.253 511.744L215.116 469.936ZM82.3767 432.862L124.184 408.725C113.55 390.306 112.806 373.98 116.635 363.371L71.2264 346.984L25.8177 330.596C10.1398 374.039 19.2927 420.148 40.5692 457L82.3767 432.862ZM71.2264 346.984L117.728 359.949C119.158 354.819 124.323 347.506 139.404 338.8L115.266 296.992L91.1281 255.185C67.5784 268.781 36.197 292.871 24.7248 334.019L71.2264 346.984ZM115.266 296.992L138.872 339.102C150.929 332.343 165.253 330.377 184.366 331.61L187.472 283.435L190.579 235.259C162.778 233.466 126.896 235.129 91.6594 254.883L115.266 296.992ZM187.472 283.435L183.026 331.504L388.795 350.54L393.241 302.47L397.688 254.4L191.919 235.365L187.472 283.435ZM393.241 302.47L439.878 314.942L440.072 314.215L393.436 301.742L346.8 289.27L346.605 289.997L393.241 302.47ZM393.436 301.742L422.355 263.087C424.687 264.832 426.334 266.467 427.34 267.558C428.342 268.646 428.945 269.455 429.144 269.727C429.352 270.013 429.342 270.022 429.081 269.609C428.828 269.207 428.439 268.566 427.878 267.593L386.07 291.731L344.263 315.868C346.715 320.116 353.316 332.017 364.517 340.397L393.436 301.742ZM386.07 291.731L427.878 267.593C425.04 262.677 423.197 254.235 425.282 245.339C427.096 237.603 432.082 228.592 444.82 221.238L420.682 179.431L396.545 137.623C322.278 180.501 314.203 263.802 344.263 315.868L386.07 291.731ZM420.682 179.431L444.82 221.238C469.558 206.956 496.757 214.91 511.614 240.644L553.422 216.506L595.229 192.368C556.559 125.389 472.246 93.9177 396.545 137.623L420.682 179.431ZM553.422 216.506L511.614 240.643C522.248 259.062 522.992 275.388 519.163 285.997L564.572 302.384L609.981 318.772C625.659 275.329 616.506 229.22 595.229 192.368L553.422 216.506ZM177.935 416.519L202.073 458.327C234.693 439.494 259.66 392.208 232.257 344.744L190.45 368.882L148.642 393.019C148.269 392.373 147.557 390.786 147.318 388.413C147.083 386.085 147.387 383.824 148.03 381.885C149.179 378.42 151.272 376.17 153.798 374.712L177.935 416.519ZM190.45 368.882L232.257 344.744C207.972 302.681 157.679 291.645 119.691 313.577L143.829 355.385L167.966 397.193C164.924 398.949 160.902 399.67 156.777 398.596C152.251 397.417 149.565 394.618 148.642 393.019L190.45 368.882ZM143.829 355.385L119.691 313.578C71.1924 341.578 70.8614 395.55 89.2107 427.332L131.018 403.195L172.826 379.057C174.081 381.23 174.839 383.99 174.133 387.595C173.735 389.629 172.864 391.817 171.45 393.8C170.011 395.817 168.564 396.848 167.966 397.193L143.829 355.385ZM131.018 403.195L89.211 427.333C110.042 463.413 158.51 483.477 202.072 458.327L177.935 416.519L153.799 374.712C157.022 372.851 161.565 372.29 165.635 373.549C169.211 374.654 171.549 376.845 172.825 379.057L131.018 403.195ZM491.97 293.983L516.107 335.791C564.606 307.79 564.937 253.818 546.588 222.036L504.78 246.174L462.973 270.311C461.718 268.138 460.959 265.378 461.665 261.773C462.064 259.739 462.935 257.551 464.349 255.569C465.787 253.551 467.235 252.521 467.832 252.176L491.97 293.983ZM504.78 246.174L546.588 222.036C525.757 185.956 477.288 165.889 433.725 191.041L457.862 232.848L482 274.656C478.776 276.517 474.233 277.077 470.162 275.819C466.587 274.714 464.25 272.523 462.973 270.311L504.78 246.174ZM457.862 232.848L433.725 191.041C401.102 209.875 376.139 257.162 403.541 304.624L445.349 280.487L487.156 256.349C487.529 256.994 488.241 258.582 488.48 260.954C488.715 263.282 488.411 265.543 487.769 267.482C486.62 270.947 484.526 273.197 482 274.656L457.862 232.848ZM445.349 280.487L403.541 304.624C427.827 346.687 478.119 357.723 516.107 335.791L491.97 293.983L467.832 252.176C470.874 250.419 474.897 249.698 479.021 250.773C483.547 251.951 486.233 254.75 487.156 256.349L445.349 280.487Z" fill="white" mask="url(#path-5-outside-3_26_62742)"/>
<path d="M342.314 0C388.023 0.00036272 437.199 15.9996 471.093 54.8674C485.097 69.7006 494.134 86.1363 499.889 102.274C546.418 111.274 587.157 141.09 611.467 183.196L612.532 185.064C634.657 224.376 644.796 274.158 628.327 322.191C622.481 341.72 612.771 357.752 601.68 370.796C616.888 414.835 611.878 464.085 588.607 505.744L587.39 507.886C564.541 547.463 526.109 582.043 475.515 591.971C455.654 596.69 436.889 596.3 420.025 593.213C388.967 629.007 342.779 649.383 294.16 649.383C248.439 649.382 199.25 633.376 165.355 594.489C151.364 579.661 142.331 563.234 136.579 547.103C90.8396 538.253 50.6966 509.291 26.256 468.31L25.0082 466.185C2.14739 426.589 -8.58751 375.985 8.14649 327.184C13.9925 307.657 23.7001 291.622 34.7921 278.577C19.3245 233.783 24.7756 183.597 49.0845 141.492L50.1704 139.635C73.1556 100.815 111.203 67.1366 161.045 57.3865C180.873 52.689 199.608 53.0816 216.446 56.1639C247.506 20.3709 293.696 5.20308e-05 342.314 0ZM342.314 17.7009C294.987 17.701 250.63 39.1508 223.329 75.8275C205.851 71.2158 185.957 69.6003 164.758 74.6961C120.139 83.3124 85.4173 113.965 64.4141 150.343C40.7507 191.329 37.1494 240.468 55.2619 282.449C42.5284 295.28 31.1826 311.703 24.9957 332.61C10.1476 375.56 19.3346 420.956 40.3378 457.335C64.0008 498.32 104.755 526.007 150.167 531.313C154.912 548.755 163.461 566.792 178.474 582.604C208.245 616.937 252.153 631.682 294.16 631.682C341.488 631.682 385.844 610.229 413.144 573.551C430.628 578.164 450.529 579.78 471.736 574.679C516.346 566.057 551.061 535.408 572.061 499.035C595.725 458.048 599.326 408.908 581.211 366.926C593.943 354.096 605.29 337.677 611.476 316.771C626.324 273.822 617.14 228.425 596.137 192.046C572.473 151.059 531.717 123.371 486.302 118.067C481.557 100.625 473.01 82.5897 457.998 66.7791C428.227 32.4456 384.32 17.7012 342.314 17.7009ZM530.868 473.818L530.254 474.898C530.533 474.414 530.805 473.927 531.076 473.441C531.006 473.566 530.939 473.693 530.868 473.818ZM536.745 461.689C536.681 461.846 536.614 462.003 536.549 462.159C536.629 461.968 536.709 461.776 536.788 461.584L536.745 461.689ZM566.754 298.236C566.656 298.557 566.556 298.878 566.454 299.198C566.352 299.518 566.248 299.837 566.141 300.156C565.929 300.794 565.708 301.429 565.48 302.062C565.937 300.795 566.361 299.521 566.754 298.236ZM554.33 216.184L553.697 215.103C553.909 215.462 554.121 215.822 554.33 216.184ZM524.688 183.196C525.323 183.651 525.953 184.114 526.578 184.585C526.644 184.634 526.708 184.686 526.773 184.736C525.953 184.115 525.126 183.507 524.29 182.915C524.422 183.008 524.556 183.101 524.688 183.196ZM104.178 178.181C103.911 178.688 103.647 179.196 103.388 179.706C103.647 179.195 103.911 178.685 104.18 178.177L104.178 178.181ZM498.957 170.084C499.322 170.204 499.687 170.325 500.05 170.45C499.573 170.286 499.092 170.127 498.613 169.972C498.727 170.009 498.842 170.046 498.957 170.084ZM425.98 103.396C426.067 103.501 426.151 103.609 426.237 103.715C426.072 103.511 425.905 103.307 425.736 103.105C425.817 103.202 425.899 103.298 425.98 103.396ZM423.04 100.067C423.066 100.095 423.092 100.124 423.118 100.152C422.836 99.8528 422.55 99.5551 422.26 99.2595L422.262 99.258C422.524 99.5259 422.783 99.7962 423.04 100.067ZM284.149 83.4711C284.338 83.3416 284.527 83.2112 284.717 83.083L285.68 82.4418C285.166 82.7798 284.656 83.1236 284.149 83.4711ZM392.355 76.6007L393.592 77.1963C393.182 76.9954 392.769 76.7963 392.355 76.6007L391.108 76.0224C391.525 76.2127 391.941 76.405 392.355 76.6007ZM326.307 67.1452C325.504 67.2642 324.703 67.392 323.906 67.5287C323.507 67.597 323.11 67.6665 322.713 67.7392C323.11 67.6664 323.508 67.5955 323.907 67.5271C324.704 67.3905 325.504 67.2641 326.307 67.1452Z" fill="currentColor"/>
<circle cx="474" cy="264" r="20" fill="white"/>
<circle cx="346" cy="159" r="20" fill="white"/>
<circle cx="185" cy="219" r="20" fill="white"/>
<circle cx="161" cy="388" r="20" fill="white"/>
<circle cx="292" cy="492" r="20" fill="white"/>
<circle cx="450" cy="428" r="20" fill="white"/>
</svg>
