<svg width="1720" height="542" viewBox="0 0 1720 542" fill="none" xmlns="http://www.w3.org/2000/svg">
<mask id="path-1-outside-1_26_62758" maskUnits="userSpaceOnUse" x="1224.94" y="59.2201" width="458" height="423" fill="currentColor">
<rect fill="white" x="1224.94" y="59.2201" width="458" height="423"/>
<path d="M1335.15 101.925C1354.54 96.9376 1373.5 103.586 1389.6 112.883C1409.03 124.43 1420.8 141.798 1429.49 159.365L1470.31 243.708L1469.66 244.82L1501.22 315.838L1502 315.629C1502.26 313.466 1503.58 310.597 1506.16 306.138C1521.32 279.878 1561.04 260.86 1601.67 284.317C1643.53 308.489 1652.54 356.961 1630.23 395.608C1616.93 418.647 1596.45 435.233 1572.87 439.456C1553.48 444.444 1534.53 437.795 1518.42 428.498C1499 416.951 1487.22 399.584 1478.54 382.017L1437.72 297.673L1438.36 296.561L1406.8 225.543L1406.02 225.752C1405.76 227.916 1404.44 230.784 1401.86 235.243C1386.7 261.503 1346.98 280.522 1306.36 257.065C1264.49 232.893 1255.48 184.42 1277.79 145.774C1291.09 122.735 1311.57 106.149 1335.15 101.925ZM1578.6 333.427C1566.71 326.562 1548.57 327.652 1538.99 344.25C1530.12 359.61 1535.79 376.098 1548.68 383.535C1565.52 393.261 1581.67 384.747 1588.53 372.856C1596.26 359.478 1593.21 341.866 1578.6 333.427ZM1359.35 157.846C1342.5 148.12 1326.35 156.634 1319.49 168.526C1311.76 181.903 1314.81 199.516 1329.43 207.954C1341.32 214.82 1359.45 213.729 1369.03 197.131C1377.9 181.772 1372.23 165.284 1359.35 157.846Z"/>
</mask>
<path d="M1335.15 101.925C1354.54 96.9376 1373.5 103.586 1389.6 112.883C1409.03 124.43 1420.8 141.798 1429.49 159.365L1470.31 243.708L1469.66 244.82L1501.22 315.838L1502 315.629C1502.26 313.466 1503.58 310.597 1506.16 306.138C1521.32 279.878 1561.04 260.86 1601.67 284.317C1643.53 308.489 1652.54 356.961 1630.23 395.608C1616.93 418.647 1596.45 435.233 1572.87 439.456C1553.48 444.444 1534.53 437.795 1518.42 428.498C1499 416.951 1487.22 399.584 1478.54 382.017L1437.72 297.673L1438.36 296.561L1406.8 225.543L1406.02 225.752C1405.76 227.916 1404.44 230.784 1401.86 235.243C1386.7 261.503 1346.98 280.522 1306.36 257.065C1264.49 232.893 1255.48 184.42 1277.79 145.774C1291.09 122.735 1311.57 106.149 1335.15 101.925ZM1578.6 333.427C1566.71 326.562 1548.57 327.652 1538.99 344.25C1530.12 359.61 1535.79 376.098 1548.68 383.535C1565.52 393.261 1581.67 384.747 1588.53 372.856C1596.26 359.478 1593.21 341.866 1578.6 333.427ZM1359.35 157.846C1342.5 148.12 1326.35 156.634 1319.49 168.526C1311.76 181.903 1314.81 199.516 1329.43 207.954C1341.32 214.82 1359.45 213.729 1369.03 197.131C1377.9 181.772 1372.23 165.284 1359.35 157.846Z" fill="currentColor"/>
<path d="M1335.15 101.925L1342.24 141.541L1343.72 141.277L1345.17 140.903L1335.15 101.925ZM1389.6 112.883L1410.16 78.2862L1409.94 78.156L1409.72 78.0287L1389.6 112.883ZM1429.49 159.365L1465.71 141.832L1465.64 141.679L1465.56 141.526L1429.49 159.365ZM1470.31 243.708L1505.15 263.854L1515.83 245.382L1506.53 226.176L1470.31 243.708ZM1469.66 244.82L1434.82 224.674L1424.56 242.425L1432.88 261.162L1469.66 244.82ZM1501.22 315.838L1464.44 332.181L1478.4 363.593L1511.61 354.721L1501.22 315.838ZM1502 315.629L1512.39 354.512L1538.74 347.473L1541.96 320.396L1502 315.629ZM1506.16 306.138L1471.31 286.015L1471.31 286.015L1506.16 306.138ZM1601.67 284.317L1621.79 249.462V249.462L1601.67 284.317ZM1630.23 395.608L1665.09 415.731L1665.09 415.731L1630.23 395.608ZM1572.87 439.456L1565.78 399.841L1564.3 400.105L1562.85 400.478L1572.87 439.456ZM1518.42 428.498L1497.86 463.095L1498.08 463.225L1498.3 463.353L1518.42 428.498ZM1478.54 382.017L1442.31 399.549L1442.38 399.702L1442.46 399.855L1478.54 382.017ZM1437.72 297.673L1402.85 277.564L1392.21 296.023L1401.49 315.205L1437.72 297.673ZM1438.36 296.561L1473.22 316.67L1483.45 298.932L1475.14 280.219L1438.36 296.561ZM1406.8 225.543L1443.58 209.201L1429.62 177.778L1396.4 186.664L1406.8 225.543ZM1406.02 225.752L1395.62 186.873L1369.29 193.917L1366.06 220.986L1406.02 225.752ZM1401.86 235.243L1436.72 255.367L1436.72 255.367L1401.86 235.243ZM1306.36 257.065L1286.23 291.919L1286.23 291.919L1306.36 257.065ZM1277.79 145.774L1242.94 125.651L1242.94 125.651L1277.79 145.774ZM1578.6 333.427L1598.72 298.573L1598.72 298.573L1578.6 333.427ZM1538.99 344.25L1504.13 324.127L1504.13 324.127L1538.99 344.25ZM1548.68 383.535L1528.55 418.39L1528.55 418.39L1548.68 383.535ZM1588.53 372.856L1623.39 392.979L1623.39 392.979L1588.53 372.856ZM1359.35 157.846L1379.47 122.992L1379.47 122.992L1359.35 157.846ZM1319.49 168.526L1284.63 148.402L1284.63 148.403L1319.49 168.526ZM1329.43 207.954L1309.3 242.809L1309.3 242.809L1329.43 207.954ZM1369.03 197.131L1403.89 217.254L1403.89 217.254L1369.03 197.131ZM1335.15 101.925L1345.17 140.903C1349.47 139.798 1356.9 140.479 1369.48 147.738L1389.6 112.883L1409.72 78.0287C1390.09 66.6938 1359.62 54.0773 1325.12 62.9468L1335.15 101.925ZM1389.6 112.883L1369.04 147.48C1378.94 153.368 1386.33 162.89 1393.41 177.203L1429.49 159.365L1465.56 141.526C1455.27 120.706 1439.11 95.4926 1410.16 78.2862L1389.6 112.883ZM1429.49 159.365L1393.26 176.897L1434.08 261.24L1470.31 243.708L1506.53 226.176L1465.71 141.832L1429.49 159.365ZM1470.31 243.708L1435.46 223.563L1434.82 224.674L1469.66 244.82L1504.5 264.965L1505.15 263.854L1470.31 243.708ZM1469.66 244.82L1432.88 261.162L1464.44 332.181L1501.22 315.838L1538 299.496L1506.44 228.477L1469.66 244.82ZM1501.22 315.838L1511.61 354.721L1512.39 354.512L1502 315.629L1491.61 276.747L1490.83 276.956L1501.22 315.838ZM1502 315.629L1541.96 320.396C1541.68 322.808 1541.18 324.679 1540.81 325.86C1540.45 327.037 1540.11 327.81 1540 328.067C1539.88 328.336 1539.87 328.332 1540.06 327.972C1540.24 327.621 1540.55 327.073 1541.01 326.261L1506.16 306.138L1471.31 286.015C1469.26 289.553 1463.42 299.281 1462.04 310.863L1502 315.629ZM1506.16 306.138L1541.01 326.262C1543.38 322.163 1548.71 317.313 1556 315.111C1562.34 313.196 1570.92 313.04 1581.54 319.171L1601.67 284.317L1621.79 249.462C1559.87 213.715 1496.37 242.609 1471.31 286.015L1506.16 306.138ZM1601.67 284.317L1581.54 319.171C1602.17 331.078 1607.76 354.032 1595.38 375.485L1630.23 395.608L1665.09 415.731C1697.32 359.891 1684.9 285.899 1621.79 249.462L1601.67 284.317ZM1630.23 395.608L1595.38 375.485C1586.51 390.84 1575.03 398.182 1565.78 399.841L1572.87 439.456L1579.97 479.072C1617.87 472.283 1647.35 446.454 1665.09 415.731L1630.23 395.608ZM1572.87 439.456L1562.85 400.478C1558.55 401.584 1551.12 400.903 1538.55 393.644L1518.42 428.498L1498.3 463.353C1517.93 474.688 1548.41 487.304 1582.9 478.435L1572.87 439.456ZM1518.42 428.498L1538.99 393.901C1529.08 388.014 1521.69 378.492 1514.61 364.179L1478.54 382.017L1442.46 399.855C1452.75 420.675 1468.91 445.889 1497.86 463.095L1518.42 428.498ZM1478.54 382.017L1514.76 364.485L1473.94 280.141L1437.72 297.673L1401.49 315.205L1442.31 399.549L1478.54 382.017ZM1437.72 297.673L1472.58 317.783L1473.22 316.67L1438.36 296.561L1403.5 276.451L1402.85 277.564L1437.72 297.673ZM1438.36 296.561L1475.14 280.219L1443.58 209.201L1406.8 225.543L1370.02 241.886L1401.58 312.903L1438.36 296.561ZM1406.8 225.543L1396.4 186.664L1395.62 186.873L1406.02 225.752L1416.42 264.632L1417.2 264.423L1406.8 225.543ZM1406.02 225.752L1366.06 220.986C1366.35 218.574 1366.84 216.702 1367.21 215.521C1367.58 214.344 1367.91 213.571 1368.02 213.315C1368.14 213.046 1368.15 213.049 1367.96 213.41C1367.78 213.76 1367.48 214.309 1367.01 215.12L1401.86 235.243L1436.72 255.367C1438.76 251.829 1444.6 242.1 1445.99 230.519L1406.02 225.752ZM1401.86 235.243L1367.01 215.12C1364.64 219.219 1359.32 224.068 1352.02 226.27C1345.68 228.185 1337.1 228.341 1326.48 222.21L1306.36 257.065L1286.23 291.919C1348.15 327.666 1411.66 298.773 1436.72 255.367L1401.86 235.243ZM1306.36 257.065L1326.48 222.21C1305.86 210.303 1300.26 187.35 1312.65 165.897L1277.79 145.774L1242.94 125.651C1210.7 181.49 1223.12 255.482 1286.23 291.919L1306.36 257.065ZM1277.79 145.774L1312.65 165.897C1321.51 150.541 1332.99 143.199 1342.24 141.541L1335.15 101.925L1328.05 62.3093C1290.15 69.099 1260.68 94.928 1242.94 125.651L1277.79 145.774ZM1578.6 333.427L1598.72 298.573C1571.52 282.871 1526.98 284.559 1504.13 324.127L1538.99 344.25L1573.84 364.374C1573.53 364.911 1572.68 366.087 1571.07 367.249C1569.49 368.389 1567.73 369.112 1566.06 369.456C1563.08 370.071 1560.58 369.497 1558.47 368.282L1578.6 333.427ZM1538.99 344.25L1504.13 324.127C1483.89 359.194 1496.88 400.104 1528.55 418.39L1548.68 383.535L1568.8 348.681C1571.34 350.146 1573.53 352.75 1574.48 356.176C1575.51 359.935 1574.61 363.041 1573.84 364.373L1538.99 344.25ZM1548.68 383.535L1528.55 418.39C1568.99 441.733 1608.09 419.476 1623.39 392.979L1588.53 372.856L1553.68 352.733C1554.73 350.92 1556.4 349.222 1559.3 348.23C1560.93 347.669 1562.88 347.386 1564.9 347.581C1566.95 347.778 1568.3 348.393 1568.8 348.681L1548.68 383.535ZM1588.53 372.856L1623.39 392.979C1640.76 362.899 1635.04 319.541 1598.72 298.573L1578.6 333.427L1558.47 368.281C1555.79 366.73 1553.49 363.683 1552.7 360.22C1552.01 357.178 1552.62 354.577 1553.68 352.733L1588.53 372.856ZM1359.35 157.846L1379.47 122.992C1339.04 99.6481 1299.93 121.905 1284.63 148.402L1319.49 168.526L1354.34 188.649C1353.3 190.461 1351.62 192.159 1348.72 193.152C1347.09 193.712 1345.15 193.995 1343.12 193.801C1341.07 193.603 1339.72 192.988 1339.22 192.7L1359.35 157.846ZM1319.49 168.526L1284.63 148.403C1267.27 178.484 1272.99 221.841 1309.3 242.809L1329.43 207.954L1349.55 173.1C1352.24 174.651 1354.53 177.697 1355.32 181.161C1356.01 184.203 1355.41 186.804 1354.34 188.649L1319.49 168.526ZM1329.43 207.954L1309.3 242.809C1336.5 258.511 1381.04 256.822 1403.89 217.254L1369.03 197.131L1334.18 177.008C1334.49 176.47 1335.34 175.295 1336.95 174.133C1338.54 172.993 1340.3 172.269 1341.96 171.925C1344.94 171.31 1347.44 171.884 1349.55 173.1L1329.43 207.954ZM1369.03 197.131L1403.89 217.254C1424.13 182.188 1411.14 141.277 1379.47 122.992L1359.35 157.846L1339.22 192.7C1336.69 191.236 1334.49 188.632 1333.55 185.206C1332.51 181.446 1333.41 178.341 1334.18 177.008L1369.03 197.131Z" fill="white" mask="url(#path-1-outside-1_26_62758)"/>
<mask id="path-3-outside-2_26_62758" maskUnits="userSpaceOnUse" x="1156.29" y="-33.4263" width="595.329" height="608.14" fill="currentColor">
<rect fill="white" x="1156.29" y="-33.4263" width="595.329" height="608.14"/>
<path d="M1540.74 83.3697C1554.75 97.6726 1558.47 117.411 1558.47 136.005C1558.18 158.603 1549.03 177.484 1538.16 193.789L1485.53 271.311L1484.24 271.31L1438.52 334.148L1439.09 334.72C1441.09 333.862 1444.24 333.576 1449.39 333.576C1479.71 333.576 1516.04 358.464 1516.04 405.377C1516.04 453.721 1478.56 485.76 1433.94 485.76C1407.34 485.76 1382.73 476.319 1367.29 458.012C1353.27 443.709 1349.55 423.97 1349.55 405.377C1349.84 382.778 1358.99 363.898 1369.86 347.593L1422.5 270.071L1423.78 270.07L1469.51 207.234L1468.93 206.661C1466.93 207.519 1463.79 207.805 1458.64 207.805C1428.31 207.805 1391.98 182.919 1391.98 136.005C1391.98 87.661 1429.46 55.6221 1474.08 55.6219C1500.69 55.6219 1525.29 65.0619 1540.74 83.3697ZM1461.97 409.954C1461.97 396.223 1451.96 381.062 1432.8 381.061C1415.06 381.061 1403.62 394.221 1403.62 409.096C1403.62 428.548 1419.06 438.273 1432.8 438.274C1448.24 438.274 1461.97 426.831 1461.97 409.954ZM1504.41 132.286C1504.41 112.834 1488.96 103.108 1475.23 103.108C1459.78 103.108 1446.05 114.55 1446.05 131.428C1446.05 145.158 1456.06 160.319 1475.23 160.319C1492.96 160.319 1504.41 147.161 1504.41 132.286Z"/>
</mask>
<path d="M1540.74 83.3697C1554.75 97.6726 1558.47 117.411 1558.47 136.005C1558.18 158.603 1549.03 177.484 1538.16 193.789L1485.53 271.311L1484.24 271.31L1438.52 334.148L1439.09 334.72C1441.09 333.862 1444.24 333.576 1449.39 333.576C1479.71 333.576 1516.04 358.464 1516.04 405.377C1516.04 453.721 1478.56 485.76 1433.94 485.76C1407.34 485.76 1382.73 476.319 1367.29 458.012C1353.27 443.709 1349.55 423.97 1349.55 405.377C1349.84 382.778 1358.99 363.898 1369.86 347.593L1422.5 270.071L1423.78 270.07L1469.51 207.234L1468.93 206.661C1466.93 207.519 1463.79 207.805 1458.64 207.805C1428.31 207.805 1391.98 182.919 1391.98 136.005C1391.98 87.661 1429.46 55.6221 1474.08 55.6219C1500.69 55.6219 1525.29 65.0619 1540.74 83.3697ZM1461.97 409.954C1461.97 396.223 1451.96 381.062 1432.8 381.061C1415.06 381.061 1403.62 394.221 1403.62 409.096C1403.62 428.548 1419.06 438.273 1432.8 438.274C1448.24 438.274 1461.97 426.831 1461.97 409.954ZM1504.41 132.286C1504.41 112.834 1488.96 103.108 1475.23 103.108C1459.78 103.108 1446.05 114.55 1446.05 131.428C1446.05 145.158 1456.06 160.319 1475.23 160.319C1492.96 160.319 1504.41 147.161 1504.41 132.286Z" fill="currentColor"/>
<path d="M1540.74 83.3697L1509.98 109.323L1510.94 110.469L1511.99 111.539L1540.74 83.3697ZM1558.47 136.005L1598.71 136.514L1598.72 136.26L1598.72 136.005L1558.47 136.005ZM1538.16 193.789L1571.46 216.397L1571.55 216.256L1571.65 216.114L1538.16 193.789ZM1485.53 271.311L1485.5 311.557L1506.84 311.571L1518.82 293.918L1485.53 271.311ZM1484.24 271.31L1484.27 231.064L1463.76 231.05L1451.7 247.63L1484.24 271.31ZM1438.52 334.148L1405.97 310.468L1385.72 338.304L1410.08 362.628L1438.52 334.148ZM1439.09 334.72L1410.65 363.2L1429.92 382.436L1454.94 371.713L1439.09 334.72ZM1449.39 333.576L1449.39 293.329L1449.39 293.329L1449.39 333.576ZM1516.04 405.377L1556.29 405.378L1556.29 405.377L1516.04 405.377ZM1433.94 485.76L1433.94 526.006L1433.94 526.006L1433.94 485.76ZM1367.29 458.012L1398.05 432.058L1397.08 430.913L1396.03 429.842L1367.29 458.012ZM1349.55 405.377L1309.31 404.867L1309.31 405.122L1309.31 405.377L1349.55 405.377ZM1369.86 347.593L1336.57 324.985L1336.47 325.126L1336.38 325.268L1369.86 347.593ZM1422.5 270.071L1422.48 229.824L1401.17 229.833L1389.2 247.463L1422.5 270.071ZM1423.78 270.07L1423.8 310.317L1444.28 310.309L1456.32 293.751L1423.78 270.07ZM1469.51 207.234L1502.05 230.914L1522.27 203.12L1497.99 178.796L1469.51 207.234ZM1468.93 206.661L1497.41 178.223L1478.15 158.927L1453.08 169.669L1468.93 206.661ZM1458.64 207.805L1458.64 248.052L1458.64 248.052L1458.64 207.805ZM1391.98 136.005L1351.74 136.005L1351.74 136.005L1391.98 136.005ZM1474.08 55.6219L1474.08 15.3754L1474.08 15.3754L1474.08 55.6219ZM1461.97 409.954L1502.22 409.954L1502.22 409.954L1461.97 409.954ZM1432.8 381.061L1432.8 340.815L1432.8 340.815L1432.8 381.061ZM1403.62 409.096L1363.37 409.096L1363.37 409.096L1403.62 409.096ZM1432.8 438.274L1432.8 478.52L1432.8 478.52L1432.8 438.274ZM1504.41 132.286L1544.65 132.287L1544.65 132.286L1504.41 132.286ZM1475.23 103.108L1475.23 62.8614L1475.23 62.8614L1475.23 103.108ZM1446.05 131.428L1405.8 131.427L1405.8 131.428L1446.05 131.428ZM1475.23 160.319L1475.23 200.566L1475.23 200.566L1475.23 160.319ZM1540.74 83.3697L1511.99 111.539C1515.1 114.71 1518.22 121.487 1518.22 136.005L1558.47 136.005L1598.72 136.005C1598.72 113.335 1594.41 80.6355 1569.48 55.2L1540.74 83.3697ZM1558.47 136.005L1518.23 135.495C1518.08 147.018 1513.53 158.179 1504.67 171.465L1538.16 193.789L1571.65 216.114C1584.53 196.789 1598.29 170.189 1598.71 136.514L1558.47 136.005ZM1538.16 193.789L1504.86 171.182L1452.23 248.703L1485.53 271.311L1518.82 293.918L1571.46 216.397L1538.16 193.789ZM1485.53 271.311L1485.55 231.064L1484.27 231.064L1484.24 271.31L1484.22 311.556L1485.5 311.557L1485.53 271.311ZM1484.24 271.31L1451.7 247.63L1405.97 310.468L1438.52 334.148L1471.06 357.828L1516.78 294.99L1484.24 271.31ZM1438.52 334.148L1410.08 362.628L1410.65 363.2L1439.09 334.72L1467.53 306.24L1466.95 305.668L1438.52 334.148ZM1439.09 334.72L1454.94 371.713C1452.71 372.67 1450.84 373.178 1449.63 373.449C1448.43 373.719 1447.59 373.817 1447.31 373.847C1447.02 373.878 1447.02 373.866 1447.43 373.851C1447.82 373.836 1448.45 373.822 1449.39 373.822L1449.39 333.576L1449.39 293.329C1445.31 293.329 1433.96 293.133 1423.24 297.727L1439.09 334.72ZM1449.39 333.576L1449.39 373.822C1454.12 373.822 1460.98 376.011 1466.54 381.225C1471.36 385.759 1475.79 393.115 1475.79 405.377L1516.04 405.377L1556.29 405.377C1556.29 333.884 1499.51 293.329 1449.39 293.329L1449.39 333.576ZM1516.04 405.377L1475.79 405.377C1475.79 429.191 1458.71 445.513 1433.94 445.513L1433.94 485.76L1433.94 526.006C1498.42 526.006 1556.28 478.251 1556.29 405.378L1516.04 405.377ZM1433.94 485.76L1433.94 445.513C1416.21 445.513 1404.11 439.245 1398.05 432.058L1367.29 458.012L1336.53 483.965C1361.36 513.394 1398.46 526.006 1433.94 526.006L1433.94 485.76ZM1367.29 458.012L1396.03 429.842C1392.93 426.672 1389.8 419.894 1389.8 405.377L1349.55 405.377L1309.31 405.377C1309.31 428.047 1313.62 460.746 1338.54 486.181L1367.29 458.012ZM1349.55 405.377L1389.8 405.886C1389.94 394.364 1394.49 383.204 1403.35 369.918L1369.86 347.593L1336.38 325.268C1323.49 344.592 1309.73 371.192 1309.31 404.867L1349.55 405.377ZM1369.86 347.593L1403.16 370.201L1455.79 292.678L1422.5 270.071L1389.2 247.463L1336.57 324.985L1369.86 347.593ZM1422.5 270.071L1422.51 310.317L1423.8 310.317L1423.78 270.07L1423.77 229.824L1422.48 229.824L1422.5 270.071ZM1423.78 270.07L1456.32 293.751L1502.05 230.914L1469.51 207.234L1436.96 183.554L1391.24 246.39L1423.78 270.07ZM1469.51 207.234L1497.99 178.796L1497.41 178.223L1468.93 206.661L1440.46 235.099L1441.03 235.672L1469.51 207.234ZM1468.93 206.661L1453.08 169.669C1455.31 168.712 1457.18 168.204 1458.39 167.933C1459.59 167.662 1460.43 167.564 1460.71 167.534C1461 167.503 1461 167.514 1460.6 167.53C1460.2 167.545 1459.57 167.559 1458.64 167.559L1458.64 207.805L1458.64 248.052C1462.72 248.052 1474.07 248.249 1484.79 243.653L1468.93 206.661ZM1458.64 207.805L1458.64 167.559C1453.9 167.559 1447.04 165.37 1441.49 160.156C1436.66 155.623 1432.23 148.267 1432.23 136.005L1391.98 136.005L1351.74 136.005C1351.74 207.5 1408.52 248.052 1458.64 248.052L1458.64 207.805ZM1391.98 136.005L1432.23 136.005C1432.23 112.19 1449.31 95.8684 1474.08 95.8683L1474.08 55.6219L1474.08 15.3754C1409.6 15.3757 1351.74 63.1316 1351.74 136.005L1391.98 136.005ZM1474.08 55.6219L1474.08 95.8683C1491.81 95.8683 1503.91 102.137 1509.98 109.323L1540.74 83.3697L1571.5 57.4159C1546.66 27.9873 1509.56 15.3754 1474.08 15.3754L1474.08 55.6219ZM1461.97 409.954L1502.22 409.954C1502.22 378.552 1478.49 340.815 1432.8 340.815L1432.8 381.061L1432.8 421.308C1432.17 421.308 1430.73 421.16 1428.92 420.344C1427.14 419.543 1425.63 418.381 1424.5 417.108C1422.48 414.834 1421.73 412.385 1421.73 409.954L1461.97 409.954ZM1432.8 381.061L1432.8 340.815C1392.3 340.815 1363.37 372.527 1363.37 409.096L1403.62 409.096L1443.86 409.096C1443.86 412.024 1442.71 415.229 1440.21 417.759C1437.48 420.535 1434.34 421.308 1432.8 421.308L1432.8 381.061ZM1403.62 409.096L1363.37 409.096C1363.37 455.783 1402.2 478.52 1432.8 478.52L1432.8 438.274L1432.8 398.027C1434.89 398.027 1437.2 398.63 1439.51 400.642C1440.81 401.778 1442.02 403.319 1442.87 405.166C1443.72 407.046 1443.86 408.52 1443.86 409.096L1403.62 409.096ZM1432.8 438.274L1432.8 478.52C1467.53 478.52 1502.22 451.891 1502.22 409.954L1461.97 409.954L1421.73 409.954C1421.73 406.851 1423.22 403.337 1425.82 400.922C1428.11 398.801 1430.67 398.027 1432.8 398.027L1432.8 438.274ZM1504.41 132.286L1544.65 132.286C1544.65 85.5994 1505.82 62.8614 1475.23 62.8614L1475.23 103.108L1475.23 143.354C1473.14 143.354 1470.83 142.752 1468.52 140.739C1467.22 139.603 1466 138.063 1465.16 136.215C1464.3 134.336 1464.16 132.862 1464.16 132.286L1504.41 132.286ZM1475.23 103.108L1475.23 62.8614C1440.49 62.8618 1405.8 89.4908 1405.8 131.427L1446.05 131.428L1486.3 131.428C1486.3 134.531 1484.81 138.045 1482.2 140.459C1479.91 142.58 1477.36 143.354 1475.23 143.354L1475.23 103.108ZM1446.05 131.428L1405.8 131.428C1405.8 162.832 1429.54 200.566 1475.23 200.566L1475.23 160.319L1475.23 120.073C1475.85 120.073 1477.29 120.221 1479.1 121.037C1480.88 121.838 1482.39 123 1483.52 124.272C1485.54 126.546 1486.3 128.996 1486.3 131.428L1446.05 131.428ZM1475.23 160.319L1475.23 200.566C1515.72 200.566 1544.65 168.857 1544.65 132.287L1504.41 132.286L1464.16 132.286C1464.16 129.357 1465.32 126.152 1467.81 123.622C1470.55 120.845 1473.69 120.073 1475.23 120.073L1475.23 160.319Z" fill="white" mask="url(#path-3-outside-2_26_62758)"/>
<mask id="path-5-outside-3_26_62758" maskUnits="userSpaceOnUse" x="1156.44" y="-33.4966" width="595.329" height="608.14" fill="currentColor">
<rect fill="white" x="1156.44" y="-33.4966" width="595.329" height="608.14"/>
<path d="M1659.68 252.094C1654.3 271.384 1639.06 284.474 1622.96 293.771C1603.25 304.822 1582.32 306.336 1562.77 305.074L1535.4 303.879L1500.69 300.113L1391.27 289.03L1391.06 289.812C1392.8 291.117 1394.62 293.699 1397.2 298.158C1412.36 324.418 1408.97 368.324 1368.34 391.78C1326.47 415.952 1279.99 399.519 1257.68 360.872C1244.38 337.833 1240.25 311.808 1248.38 289.276C1253.76 269.986 1268.99 256.896 1285.1 247.599C1304.81 236.547 1325.74 235.035 1345.3 236.296L1516.84 252.166L1517 251.559C1515.26 250.254 1513.44 247.672 1510.86 243.213C1495.7 216.953 1499.09 173.046 1539.72 149.589C1581.59 125.417 1628.07 141.852 1650.38 180.498C1663.68 203.537 1667.81 229.562 1659.68 252.094ZM1337.34 347.247C1349.24 340.382 1357.36 324.131 1347.78 307.532C1338.91 292.173 1321.79 288.842 1308.91 296.28C1292.06 306.006 1291.36 324.247 1298.23 336.138C1305.95 349.516 1322.73 355.686 1337.34 347.247ZM1599.15 245.09C1616 235.364 1616.69 217.124 1609.83 205.232C1602.11 191.855 1585.33 185.685 1570.71 194.123C1558.82 200.989 1550.7 217.24 1560.28 233.838C1569.15 249.198 1586.27 252.528 1599.15 245.09Z"/>
</mask>
<path d="M1659.68 252.094C1654.3 271.384 1639.06 284.474 1622.96 293.771C1603.25 304.822 1582.32 306.336 1562.77 305.074L1535.4 303.879L1500.69 300.113L1391.27 289.03L1391.06 289.812C1392.8 291.117 1394.62 293.699 1397.2 298.158C1412.36 324.418 1408.97 368.324 1368.34 391.78C1326.47 415.952 1279.99 399.519 1257.68 360.872C1244.38 337.833 1240.25 311.808 1248.38 289.276C1253.76 269.986 1268.99 256.896 1285.1 247.599C1304.81 236.547 1325.74 235.035 1345.3 236.296L1516.84 252.166L1517 251.559C1515.26 250.254 1513.44 247.672 1510.86 243.213C1495.7 216.953 1499.09 173.046 1539.72 149.589C1581.59 125.417 1628.07 141.852 1650.38 180.498C1663.68 203.537 1667.81 229.562 1659.68 252.094ZM1337.34 347.247C1349.24 340.382 1357.36 324.131 1347.78 307.532C1338.91 292.173 1321.79 288.842 1308.91 296.28C1292.06 306.006 1291.36 324.247 1298.23 336.138C1305.95 349.516 1322.73 355.686 1337.34 347.247ZM1599.15 245.09C1616 235.364 1616.69 217.124 1609.83 205.232C1602.11 191.855 1585.33 185.685 1570.71 194.123C1558.82 200.989 1550.7 217.24 1560.28 233.838C1569.15 249.198 1586.27 252.528 1599.15 245.09Z" fill="currentColor"/>
<path d="M1659.68 252.094L1621.82 238.432L1621.31 239.842L1620.91 241.285L1659.68 252.094ZM1622.96 293.771L1642.64 328.877L1642.86 328.753L1643.09 328.625L1622.96 293.771ZM1562.77 305.074L1565.36 264.911L1564.94 264.885L1564.52 264.866L1562.77 305.074ZM1535.4 303.879L1531.06 343.89L1532.35 344.03L1533.64 344.087L1535.4 303.879ZM1500.69 300.113L1505.03 260.101L1504.89 260.086L1504.74 260.071L1500.69 300.113ZM1391.27 289.03L1395.32 248.988L1361.28 245.54L1352.4 278.585L1391.27 289.03ZM1391.06 289.812L1352.19 279.367L1345.11 305.702L1366.95 322.038L1391.06 289.812ZM1397.2 298.158L1432.05 278.035L1432.05 278.035L1397.2 298.158ZM1368.34 391.78L1388.46 426.635L1388.46 426.635L1368.34 391.78ZM1257.68 360.872L1222.82 380.996L1222.82 380.996L1257.68 360.872ZM1248.38 289.276L1286.24 302.938L1286.75 301.528L1287.15 300.085L1248.38 289.276ZM1285.1 247.599L1265.42 212.493L1265.19 212.617L1264.97 212.744L1285.1 247.599ZM1345.3 236.296L1349 196.221L1348.44 196.169L1347.89 196.133L1345.3 236.296ZM1516.84 252.166L1513.13 292.241L1546.96 295.371L1555.73 262.547L1516.84 252.166ZM1517 251.559L1555.89 261.94L1562.91 235.64L1541.11 219.333L1517 251.559ZM1510.86 243.213L1476.01 263.336L1476.01 263.336L1510.86 243.213ZM1539.72 149.589L1519.6 114.735L1519.6 114.735L1539.72 149.589ZM1650.38 180.498L1685.24 160.375L1685.24 160.375L1650.38 180.498ZM1337.34 347.247L1357.47 382.102L1357.47 382.102L1337.34 347.247ZM1347.78 307.532L1382.63 287.409L1382.63 287.409L1347.78 307.532ZM1308.91 296.28L1288.79 261.425V261.425L1308.91 296.28ZM1298.23 336.138L1263.38 356.262L1263.38 356.262L1298.23 336.138ZM1599.15 245.09L1619.27 279.945L1619.27 279.945L1599.15 245.09ZM1609.83 205.232L1644.68 185.109L1644.68 185.109L1609.83 205.232ZM1570.71 194.123L1550.59 159.269L1550.59 159.269L1570.71 194.123ZM1560.28 233.838L1525.43 253.962L1525.43 253.962L1560.28 233.838ZM1659.68 252.094L1620.91 241.285C1619.72 245.561 1615.41 251.658 1602.84 258.917L1622.96 293.771L1643.09 328.625C1662.72 317.29 1688.88 297.207 1698.45 262.903L1659.68 252.094ZM1622.96 293.771L1603.28 258.665C1593.23 264.3 1581.29 265.939 1565.36 264.911L1562.77 305.074L1560.17 345.237C1583.35 346.732 1613.27 345.345 1642.64 328.877L1622.96 293.771ZM1562.77 305.074L1564.52 264.866L1537.16 263.671L1535.4 303.879L1533.64 344.087L1561.01 345.283L1562.77 305.074ZM1535.4 303.879L1539.74 263.867L1505.03 260.101L1500.69 300.113L1496.35 340.125L1531.06 343.89L1535.4 303.879ZM1500.69 300.113L1504.74 260.071L1395.32 248.988L1391.27 289.03L1387.21 329.071L1496.63 340.154L1500.69 300.113ZM1391.27 289.03L1352.4 278.585L1352.19 279.367L1391.06 289.812L1429.92 300.257L1430.13 299.475L1391.27 289.03ZM1391.06 289.812L1366.95 322.038C1365 320.582 1363.63 319.218 1362.79 318.308C1361.95 317.4 1361.45 316.725 1361.28 316.499C1361.11 316.261 1361.12 316.253 1361.34 316.598C1361.55 316.934 1361.87 317.469 1362.34 318.281L1397.2 298.158L1432.05 278.035C1430.01 274.501 1424.51 264.574 1415.17 257.586L1391.06 289.812ZM1397.2 298.158L1362.34 318.281C1364.71 322.38 1366.24 329.418 1364.51 336.834C1362.99 343.283 1358.84 350.795 1348.22 356.926L1368.34 391.78L1388.46 426.635C1450.38 390.887 1457.11 321.441 1432.05 278.035L1397.2 298.158ZM1368.34 391.78L1348.22 356.926C1327.59 368.833 1304.92 362.202 1292.53 340.749L1257.68 360.872L1222.82 380.996C1255.06 436.836 1325.35 463.072 1388.46 426.635L1368.34 391.78ZM1257.68 360.872L1292.53 340.749C1283.67 325.394 1283.05 311.783 1286.24 302.938L1248.38 289.276L1210.53 275.614C1197.45 311.832 1205.09 350.273 1222.82 380.996L1257.68 360.872ZM1248.38 289.276L1287.15 300.085C1288.34 295.809 1292.65 289.712 1305.22 282.453L1285.1 247.599L1264.97 212.744C1245.34 224.079 1219.18 244.162 1209.61 278.467L1248.38 289.276ZM1285.1 247.599L1304.78 282.705C1314.83 277.07 1326.77 275.431 1342.71 276.459L1345.3 236.296L1347.89 196.133C1324.71 194.638 1294.79 196.025 1265.42 212.493L1285.1 247.599ZM1345.3 236.296L1341.59 276.371L1513.13 292.241L1516.84 252.166L1520.55 212.09L1349 196.221L1345.3 236.296ZM1516.84 252.166L1555.73 262.547L1555.89 261.94L1517 251.559L1478.12 241.178L1477.96 241.784L1516.84 252.166ZM1517 251.559L1541.11 219.333C1543.06 220.789 1544.43 222.153 1545.27 223.063C1546.11 223.971 1546.61 224.645 1546.78 224.872C1546.95 225.11 1546.94 225.118 1546.72 224.773C1546.51 224.437 1546.19 223.902 1545.72 223.089L1510.86 243.213L1476.01 263.336C1478.05 266.869 1483.55 276.797 1492.89 283.785L1517 251.559ZM1510.86 243.213L1545.72 223.09C1543.35 218.991 1541.82 211.952 1543.55 204.536C1545.07 198.087 1549.22 190.575 1559.84 184.444L1539.72 149.589L1519.6 114.735C1457.68 150.482 1450.95 219.93 1476.01 263.336L1510.86 243.213ZM1539.72 149.589L1559.84 184.444C1580.47 172.537 1603.14 179.168 1615.53 200.622L1650.38 180.498L1685.24 160.375C1653 104.536 1582.71 78.2979 1519.6 114.735L1539.72 149.589ZM1650.38 180.498L1615.53 200.621C1624.39 215.977 1625.01 229.587 1621.82 238.432L1659.68 252.094L1697.53 265.756C1710.6 229.537 1702.97 191.098 1685.24 160.375L1650.38 180.498ZM1337.34 347.247L1357.47 382.102C1384.66 366.4 1405.48 326.977 1382.63 287.409L1347.78 307.532L1312.92 327.655C1312.61 327.118 1312.02 325.794 1311.82 323.816C1311.62 321.875 1311.88 319.99 1312.41 318.374C1313.37 315.485 1315.11 313.609 1317.22 312.393L1337.34 347.247ZM1347.78 307.532L1382.63 287.409C1362.39 252.343 1320.46 243.14 1288.79 261.425L1308.91 296.28L1329.03 331.134C1326.5 332.599 1323.14 333.2 1319.7 332.304C1315.93 331.321 1313.69 328.988 1312.92 327.655L1347.78 307.532ZM1308.91 296.28L1288.79 261.425C1248.35 284.77 1248.08 329.767 1263.38 356.262L1298.23 336.138L1333.08 316.015C1334.13 317.827 1334.76 320.127 1334.17 323.132C1333.84 324.828 1333.12 326.652 1331.94 328.305C1330.74 329.987 1329.53 330.846 1329.03 331.134L1308.91 296.28ZM1298.23 336.138L1263.38 356.262C1280.74 386.341 1321.15 403.07 1357.47 382.102L1337.34 347.247L1317.22 312.393C1319.91 310.841 1323.7 310.374 1327.09 311.423C1330.07 312.345 1332.02 314.171 1333.08 316.015L1298.23 336.138ZM1599.15 245.09L1619.27 279.945C1659.71 256.6 1659.98 211.603 1644.68 185.109L1609.83 205.232L1574.98 225.356C1573.93 223.544 1573.3 221.244 1573.89 218.239C1574.22 216.543 1574.94 214.718 1576.12 213.065C1577.32 211.383 1578.53 210.524 1579.03 210.236L1599.15 245.09ZM1609.83 205.232L1644.68 185.109C1627.32 155.03 1586.91 138.3 1550.59 159.269L1570.71 194.123L1590.84 228.978C1588.15 230.529 1584.36 230.997 1580.97 229.947C1577.99 229.026 1576.04 227.199 1574.98 225.356L1609.83 205.232ZM1570.71 194.123L1550.59 159.269C1523.4 174.971 1502.58 214.393 1525.43 253.962L1560.28 233.838L1595.14 213.715C1595.45 214.253 1596.04 215.577 1596.24 217.554C1596.44 219.496 1596.18 221.381 1595.65 222.997C1594.69 225.886 1592.94 227.762 1590.84 228.977L1570.71 194.123ZM1560.28 233.838L1525.43 253.962C1545.68 289.029 1587.6 298.229 1619.27 279.945L1599.15 245.09L1579.03 210.236C1581.56 208.771 1584.92 208.171 1588.36 209.066C1592.13 210.049 1594.37 212.381 1595.14 213.715L1560.28 233.838Z" fill="white" mask="url(#path-5-outside-3_26_62758)"/>
<path d="M1474.38 0C1512.49 0.000302396 1553.49 13.3387 1581.74 45.7423C1593.42 58.1086 1600.95 71.8109 1605.75 85.2643C1644.54 92.768 1678.51 117.625 1698.77 152.728L1699.66 154.286C1718.11 187.06 1726.56 228.562 1712.83 268.607C1707.96 284.888 1699.86 298.254 1690.61 309.129C1703.29 345.843 1699.12 386.902 1679.71 421.633L1678.7 423.418C1659.65 456.413 1627.61 485.243 1585.43 493.519C1568.87 497.454 1553.23 497.128 1539.17 494.554C1513.28 524.396 1474.77 541.383 1434.24 541.383C1396.12 541.383 1355.11 528.039 1326.85 495.618C1315.19 483.256 1307.66 469.561 1302.86 456.113C1264.73 448.735 1231.27 424.59 1210.89 390.425L1209.85 388.653C1190.79 355.642 1181.84 313.454 1195.79 272.769C1200.67 256.49 1208.76 243.122 1218.01 232.246C1205.11 194.902 1209.66 153.063 1229.92 117.961L1230.83 116.412C1249.99 84.0481 1281.71 55.971 1323.26 47.8424C1339.79 43.9262 1355.41 44.2535 1369.45 46.8232C1395.34 16.983 1433.85 4.33775e-05 1474.38 0ZM1474.38 14.757C1434.93 14.7571 1397.95 32.6396 1375.19 63.2165C1360.62 59.3718 1344.03 58.025 1326.36 62.2733C1289.16 69.4565 1260.21 95.0113 1242.7 125.339C1222.97 159.509 1219.97 200.475 1235.07 235.474C1224.46 246.171 1215 259.863 1209.84 277.293C1197.46 313.1 1205.12 350.946 1222.63 381.275C1242.36 415.444 1276.33 438.526 1314.19 442.949C1318.15 457.491 1325.28 472.528 1337.79 485.71C1362.61 514.334 1399.22 526.626 1434.24 526.626C1473.69 526.626 1510.67 508.741 1533.43 478.162C1548.01 482.008 1564.6 483.356 1582.28 479.103C1619.47 471.915 1648.41 446.363 1665.92 416.04C1685.65 381.869 1688.65 340.902 1673.55 305.902C1684.16 295.205 1693.62 281.517 1698.78 264.088C1711.16 228.282 1703.5 190.435 1685.99 160.107C1666.26 125.936 1632.29 102.853 1594.42 98.4309C1590.47 83.8903 1583.34 68.8541 1570.83 55.6729C1546.01 27.0495 1509.4 14.7573 1474.38 14.757ZM1631.58 395.017L1631.07 395.917C1631.3 395.513 1631.53 395.107 1631.75 394.702C1631.69 394.806 1631.64 394.912 1631.58 395.017ZM1636.48 384.905C1636.42 385.036 1636.37 385.166 1636.31 385.297C1636.38 385.137 1636.45 384.977 1636.51 384.817L1636.48 384.905ZM1661.5 248.636C1661.41 248.903 1661.33 249.171 1661.25 249.438C1661.16 249.704 1661.07 249.971 1660.99 250.237C1660.81 250.768 1660.62 251.298 1660.43 251.826C1660.81 250.77 1661.17 249.707 1661.5 248.636ZM1651.14 180.23L1650.61 179.329C1650.79 179.628 1650.96 179.928 1651.14 180.23ZM1626.43 152.728C1626.96 153.107 1627.48 153.494 1628 153.886C1628.06 153.927 1628.11 153.971 1628.16 154.012C1627.48 153.495 1626.79 152.988 1626.09 152.494C1626.2 152.572 1626.32 152.649 1626.43 152.728ZM1275.85 148.548C1275.63 148.97 1275.41 149.394 1275.19 149.818C1275.41 149.393 1275.63 148.968 1275.85 148.544L1275.85 148.548ZM1604.97 141.797C1605.28 141.897 1605.58 141.998 1605.89 142.102C1605.49 141.966 1605.09 141.833 1604.69 141.704C1604.78 141.735 1604.88 141.765 1604.97 141.797ZM1544.13 86.1997C1544.21 86.2877 1544.28 86.3773 1544.35 86.4657C1544.21 86.2958 1544.07 86.126 1543.93 85.9573C1544 86.0383 1544.07 86.1184 1544.13 86.1997ZM1541.68 83.4249C1541.71 83.4482 1541.73 83.4723 1541.75 83.4957C1541.51 83.2461 1541.27 82.9979 1541.03 82.7515L1541.03 82.7502C1541.25 82.9735 1541.47 83.1989 1541.68 83.4249ZM1425.89 69.5889C1426.05 69.4809 1426.21 69.3722 1426.36 69.2653L1427.17 68.7308C1426.74 69.0125 1426.31 69.2991 1425.89 69.5889ZM1516.1 63.8611L1517.13 64.3576C1516.79 64.1901 1516.45 64.0242 1516.1 63.8611L1515.06 63.379C1515.41 63.5376 1515.76 63.698 1516.1 63.8611ZM1461.04 55.9782C1460.37 56.0774 1459.7 56.1839 1459.04 56.2979C1458.7 56.3548 1458.37 56.4128 1458.04 56.4734C1458.37 56.4127 1458.71 56.3536 1459.04 56.2966C1459.7 56.1827 1460.37 56.0773 1461.04 55.9782Z" fill="currentColor"/>
<circle cx="1584.17" cy="220.094" r="16.6738" fill="white"/>
<circle cx="1477.46" cy="132.556" r="16.6738" fill="white"/>
<circle cx="1343.23" cy="182.578" r="16.6738" fill="white"/>
<circle cx="1323.22" cy="323.471" r="16.6738" fill="white"/>
<circle cx="1432.44" cy="410.175" r="16.6738" fill="white"/>
<circle cx="1564.16" cy="356.819" r="16.6738" fill="white"/>
<path d="M783.629 294.252L814.262 93.7006H1010.03V169.805H883.666L876.008 218.148C885.58 212.883 896.111 207.618 923.872 207.618C1007.63 207.618 1042.1 277.5 1042.1 326.321C1042.1 380.408 1001.41 455.077 906.162 455.077C830.058 455.077 781.715 409.127 771.185 353.125H862.127C870.264 364.134 879.358 369.878 887.016 372.271C894.675 375.143 900.897 375.143 903.769 375.143C929.616 375.143 951.633 354.083 951.633 328.236C951.633 305.261 934.881 281.808 903.29 281.808C885.58 281.808 867.392 288.509 856.862 312.441L783.629 294.252Z" fill="currentColor"/>
<path d="M631.343 371.793H751.483V447.897H501.631V377.537C546.144 348.339 576.299 328.715 609.804 291.381C620.813 278.936 658.626 236.815 658.626 200.917C658.626 186.558 650.489 166.455 625.121 166.455C589.701 166.455 585.872 201.874 584.436 222.456H498.28C499.237 199.481 500.195 170.284 519.34 141.087C549.495 94.1796 602.624 87 628.471 87C707.447 87 749.089 139.651 749.089 189.908C749.089 265.055 687.344 322.493 631.343 371.793Z" fill="currentColor"/>
<path d="M256.964 447.897L334.983 340.681L334.026 339.724C330.675 341.16 325.41 341.638 316.794 341.638C266.058 341.638 205.271 299.996 205.271 221.499C205.271 140.608 267.973 87 342.641 87C387.155 87 428.318 102.795 454.165 133.428C477.619 157.361 483.841 190.387 483.841 221.499C483.362 259.312 468.046 290.902 449.857 318.185L361.787 447.897H256.964ZM393.377 215.276C393.377 182.729 367.531 166.455 344.556 166.455C318.709 166.455 295.734 185.601 295.734 213.841C295.734 236.815 312.487 262.184 344.556 262.184C374.232 262.184 393.377 240.166 393.377 215.276Z" fill="currentColor"/>
<path d="M0 447.897V93.7006H193.372V173.155H86.6345V233.465H189.543V312.919H86.6345V447.897H0Z" fill="currentColor"/>
</svg>
