<svg width="205" height="30" viewBox="0 0 205 30" fill="none" xmlns="http://www.w3.org/2000/svg">
<path d="M187.194 29V1.16251H194.191L195.771 15.9841H195.808L197.388 1.16251H204.348V29H198.78V19.144C198.78 16.9245 198.818 14.4794 198.818 12.8994H198.743C198.555 15.2693 198.366 17.4512 198.141 19.1064L196.786 29H193.965L192.611 19.1064C192.385 17.4512 192.272 16.0593 192.009 12.9746H191.934C191.971 13.8022 191.971 16.6988 191.971 19.144V29H187.194Z" fill="#262B31"/>
<path d="M178.573 29.2633C173.645 29.2633 171.275 25.4639 171.275 15.0813C171.275 4.69863 173.645 0.899185 178.573 0.899185C183.464 0.899185 185.871 4.69863 185.871 15.0813C185.871 25.4639 183.464 29.2633 178.573 29.2633ZM178.573 23.9968C179.739 23.9968 179.777 22.1159 179.777 15.0813C179.777 8.04665 179.739 6.35383 178.573 6.35383C177.407 6.35383 177.37 8.04665 177.37 15.0813C177.37 22.1159 177.407 23.9968 178.573 23.9968Z" fill="#262B31"/>
<path d="M163.839 29.2633C158.911 29.2633 156.654 25.4639 156.654 15.0813C156.654 4.69863 158.911 0.899185 163.839 0.899185C168.73 0.899185 170.611 3.11866 170.611 12.3351L165.006 12.5608C165.006 7.25667 164.742 6.35383 163.839 6.35383C162.673 6.35383 162.711 8.46045 162.711 15.0813C162.711 21.9278 162.748 23.9968 163.877 23.9968C164.855 23.9968 165.081 23.3573 165.156 18.0155L170.761 18.2412C170.498 24.1472 169.783 29.2633 163.839 29.2633Z" fill="#262B31"/>
<path d="M149.062 29V22.6049H155.344V29H149.062Z" fill="#262B31"/>
<path d="M133.273 29L137.787 1.04966H143.994L148.471 29H142.489L141.925 23.8087H139.367L138.84 29H133.273ZM139.668 19.8588H141.662C141.436 17.6393 141.173 14.8932 140.985 13.0875C140.872 12.147 140.797 11.2442 140.721 10.379H140.646C140.571 11.2442 140.458 12.147 140.383 13.0875C140.195 14.9308 139.931 17.6393 139.668 19.8588Z" fill="#262B31"/>
<path d="M119.268 29V1.16251H124.76L125.926 6.24097C126.566 8.9871 127.281 12.147 127.77 14.9684H127.845C127.657 11.8837 127.582 9.13758 127.582 6.61716V1.16251H132.66V29H127.845L126.453 24.1472C125.588 21.1754 124.685 18.4669 124.158 15.4198H124.083C124.309 17.5641 124.347 21.9654 124.347 23.8839V29H119.268Z" fill="#262B31"/>
<path d="M103.48 29L107.994 1.04966H114.201L118.678 29H112.696L112.132 23.8087H109.574L109.047 29H103.48ZM109.875 19.8588H111.869C111.643 17.6393 111.38 14.8932 111.192 13.0875C111.079 12.147 111.004 11.2442 110.928 10.379H110.853C110.778 11.2442 110.665 12.147 110.59 13.0875C110.402 14.9308 110.138 17.6393 109.875 19.8588Z" fill="#262B31"/>
<path d="M85.6909 29V1.16251H92.6879L94.2679 15.9841H94.3055L95.8855 1.16251H102.845V29H97.2773V19.144C97.2773 16.9245 97.3149 14.4794 97.3149 12.8994H97.2397C97.0516 15.2693 96.8635 17.4512 96.6378 19.1064L95.2836 29H92.4622L91.1079 19.1064C90.8822 17.4512 90.7694 16.0593 90.5061 12.9746H90.4308C90.4684 13.8022 90.4684 16.6988 90.4684 19.144V29H85.6909Z" fill="#262B31"/>
<path d="M70.4819 29V1.16251H75.9742L77.1404 6.24097C77.7799 8.9871 78.4946 12.147 78.9837 14.9684H79.0589C78.8708 11.8837 78.7956 9.13758 78.7956 6.61716V1.16251H83.874V29H79.0589L77.667 24.1472C76.8018 21.1754 75.899 18.4669 75.3723 15.4198H75.2971C75.5228 17.5641 75.5604 21.9654 75.5604 23.8839V29H70.4819Z" fill="#262B31"/>
<path d="M62.5513 29V1.16251H68.495V29H62.5513Z" fill="#262B31"/>
<path d="M52.0634 29V6.27859H48.6025V1.16251H61.468V6.27859H58.0071V29H52.0634Z" fill="#262B31"/>
<path d="M34.48 29V1.16251H40.7622C44.7874 1.16251 48.0978 3.79579 48.0978 10.4542C48.0978 13.9903 47.1573 16.4355 45.7654 17.6769L48.5116 29H42.7184L40.6494 19.7083H40.2356V29H34.48ZM40.2356 15.3822H40.7246C41.5146 15.3822 42.1917 14.5546 42.1917 10.5295C42.1917 6.73001 41.5146 6.27859 40.687 6.27859H40.2356V15.3822Z" fill="#262B31"/>
<path d="M18.6919 29L23.2061 1.04966H29.4131L33.8897 29H27.9084L27.3441 23.8087H24.786L24.2594 29H18.6919ZM25.087 19.8588H27.0808C26.855 17.6393 26.5917 14.8932 26.4036 13.0875C26.2908 12.147 26.2155 11.2442 26.1403 10.379H26.0651C25.9898 11.2442 25.877 12.147 25.8017 13.0875C25.6136 14.9308 25.3503 17.6393 25.087 19.8588Z" fill="#262B31"/>
<path d="M0.902832 29V1.16251H7.89982L9.47979 15.9841H9.51741L11.0974 1.16251H18.0567V29H12.4892V19.144C12.4892 16.9245 12.5269 14.4794 12.5269 12.8994H12.4516C12.2635 15.2693 12.0754 17.4512 11.8497 19.1064L10.4955 29H7.67411L6.31986 19.1064C6.09415 17.4512 5.98129 16.0593 5.71797 12.9746H5.64273C5.68035 13.8022 5.68035 16.6988 5.68035 19.144V29H0.902832Z" fill="#262B31"/>
</svg>
