<svg width="1043" height="369" viewBox="0 0 1043 369" fill="none" xmlns="http://www.w3.org/2000/svg">
<path d="M783.629 207.252L814.262 6.70062H1010.03V82.805H883.666L876.008 131.148C885.58 125.883 896.111 120.618 923.872 120.618C1007.63 120.618 1042.1 190.5 1042.1 239.321C1042.1 293.408 1001.41 368.077 906.162 368.077C830.058 368.077 781.715 322.127 771.185 266.125H862.127C870.264 277.134 879.358 282.878 887.016 285.271C894.675 288.143 900.897 288.143 903.769 288.143C929.616 288.143 951.633 267.083 951.633 241.236C951.633 218.261 934.881 194.808 903.29 194.808C885.58 194.808 867.392 201.509 856.862 225.441L783.629 207.252Z" fill="currentColor"/>
<path d="M631.343 284.793H751.483V360.897H501.631V290.537C546.144 261.339 576.299 241.715 609.804 204.381C620.813 191.936 658.626 149.815 658.626 113.917C658.626 99.5579 650.489 79.4549 625.121 79.4549C589.701 79.4549 585.872 114.874 584.436 135.456H498.28C499.237 112.481 500.195 83.284 519.34 54.0867C549.495 7.17965 602.624 0 628.471 0C707.447 0 749.089 52.6508 749.089 102.908C749.089 178.055 687.344 235.493 631.343 284.793Z" fill="currentColor"/>
<path d="M256.964 360.897L334.983 253.681L334.026 252.724C330.675 254.16 325.41 254.638 316.794 254.638C266.058 254.638 205.271 212.996 205.271 134.499C205.271 53.6081 267.973 0 342.641 0C387.155 0 428.318 15.7952 454.165 46.4284C477.619 70.3606 483.841 103.387 483.841 134.499C483.362 172.312 468.046 203.902 449.857 231.185L361.787 360.897H256.964ZM393.377 128.276C393.377 95.7287 367.531 79.4549 344.556 79.4549C318.709 79.4549 295.734 98.6006 295.734 126.841C295.734 149.815 312.487 175.184 344.556 175.184C374.232 175.184 393.377 153.166 393.377 128.276Z" fill="currentColor"/>
<path d="M0 360.897V6.70062H193.372V86.1555H86.6345V146.465H189.543V225.919H86.6345V360.897H0Z" fill="currentColor"/>
</svg>
