<svg width="656" height="739" viewBox="0 0 656 739" fill="none" xmlns="http://www.w3.org/2000/svg">
<g clip-path="url(#clip0_195_370)">
<path opacity="0.3" d="M328 85.125L412.375 259.5" stroke="#AEF9D1" stroke-dasharray="2.5 2.5"/>
<path opacity="0.3" d="M327.375 85.125L243 259.5" stroke="#AEF9D1" stroke-dasharray="2.5 2.5"/>
<path opacity="0.3" d="M328 737.625C508.182 737.625 654.25 591.557 654.25 411.375C654.25 231.193 508.182 85.125 328 85.125C147.818 85.125 1.75 231.193 1.75 411.375C1.75 591.557 147.818 737.625 328 737.625Z" stroke="#AEF9D1" stroke-dasharray="2.5 2.5"/>
<path opacity="0.3" d="M243.941 258.26L412.696 599.503" stroke="#AEF9D1" stroke-dasharray="2.5 2.5"/>
<path opacity="0.3" d="M243.942 258.259L412.695 485.753" stroke="#AEF9D1" stroke-dasharray="2.5 2.5"/>
<path opacity="0.3" d="M243.945 258.253L413.32 372.003" stroke="#AEF9D1" stroke-dasharray="2.5 2.5"/>
<path opacity="0.3" d="M243.946 258.253H412.696" stroke="#AEF9D1" stroke-dasharray="2.5 2.5"/>
<path opacity="0.3" d="M243.948 372.001L412.696 258.253" stroke="#AEF9D1" stroke-dasharray="2.5 2.5"/>
<path opacity="0.3" d="M243.947 372.001L412.696 599.502" stroke="#AEF9D1" stroke-dasharray="2.5 2.5"/>
<path opacity="0.3" d="M243.948 371.997L412.071 485.753" stroke="#AEF9D1" stroke-dasharray="2.5 2.5"/>
<path opacity="0.3" d="M243.946 372.003H412.696" stroke="#AEF9D1" stroke-dasharray="2.5 2.5"/>
<path opacity="0.3" d="M243.95 485.76L412.696 372.003" stroke="#AEF9D1" stroke-dasharray="2.5 2.5"/>
<path opacity="0.3" d="M243.947 485.755L412.696 258.253" stroke="#AEF9D1" stroke-dasharray="2.5 2.5"/>
<path opacity="0.3" d="M243.946 485.75L412.696 599.503" stroke="#AEF9D1" stroke-dasharray="2.5 2.5"/>
<path opacity="0.3" d="M243.946 485.753H412.696" stroke="#AEF9D1" stroke-dasharray="2.5 2.5"/>
<path opacity="0.3" d="M243.945 599.504L412.696 258.253" stroke="#AEF9D1" stroke-dasharray="2.5 2.5"/>
<path opacity="0.3" d="M243.947 599.496L412.696 372.003" stroke="#AEF9D1" stroke-dasharray="2.5 2.5"/>
<path opacity="0.3" d="M243.938 599.512L412.696 485.754" stroke="#AEF9D1" stroke-dasharray="2.5 2.5"/>
<path opacity="0.3" d="M243.946 599.503H412.696" stroke="#AEF9D1" stroke-dasharray="2.5 2.5"/>
<path opacity="0.3" d="M243.625 598.875V257" stroke="#AEF9D1" stroke-dasharray="2.5 2.5"/>
<path opacity="0.3" d="M412.375 598.875V259.5" stroke="#AEF9D1" stroke-dasharray="2.5 2.5"/>
</g>
<defs>
<clipPath id="clip0_195_370">
<rect width="655" height="738.75" fill="white" transform="translate(0.5 0.125)"/>
</clipPath>
</defs>
</svg>
