<svg width="502" height="524" viewBox="0 0 502 524" fill="none" xmlns="http://www.w3.org/2000/svg">
<g clip-path="url(#clip0_158_356)">
<path opacity="0.3" d="M179 295.023C242.789 295.023 294.5 243.312 294.5 179.523C294.5 115.734 242.789 64.023 179 64.023C115.211 64.023 63.5 115.734 63.5 179.523C63.5 243.312 115.211 295.023 179 295.023Z" stroke="#AEF9D1" stroke-dasharray="2 2"/>
<path opacity="0.3" d="M251 438.558C354.334 438.558 438.103 354.789 438.103 251.455C438.103 148.121 354.334 64.352 251 64.352C147.666 64.352 63.897 148.121 63.897 251.455C63.897 354.789 147.666 438.558 251 438.558Z" stroke="#AEF9D1" stroke-dasharray="2 2"/>
<path opacity="0.3" d="M251 501.955C389.347 501.955 501.5 389.802 501.5 251.455C501.5 113.108 389.347 0.955017 251 0.955017C112.653 0.955017 0.5 113.108 0.5 251.455C0.5 389.802 112.653 501.955 251 501.955Z" stroke="#AEF9D1" stroke-dasharray="2 2"/>
<path opacity="0.3" d="M179.23 438.558C242.927 438.558 294.563 386.922 294.563 323.225C294.563 259.528 242.927 207.892 179.23 207.892C115.533 207.892 63.897 259.528 63.897 323.225C63.897 386.922 115.533 438.558 179.23 438.558Z" stroke="#AEF9D1" stroke-dasharray="2 2"/>
<path opacity="0.3" d="M322.77 438.558C386.467 438.558 438.103 386.922 438.103 323.225C438.103 259.528 386.467 207.892 322.77 207.892C259.073 207.892 207.437 259.528 207.437 323.225C207.437 386.922 259.073 438.558 322.77 438.558Z" stroke="#AEF9D1" stroke-dasharray="2 2"/>
<path opacity="0.3" d="M179.23 523.486C242.927 523.486 294.563 471.85 294.563 408.153C294.563 344.456 242.927 292.82 179.23 292.82C115.533 292.82 63.897 344.456 63.897 408.153C63.897 471.85 115.533 523.486 179.23 523.486Z" stroke="#AEF9D1" stroke-dasharray="2 2"/>
<path opacity="0.3" d="M322.77 523.486C386.467 523.486 438.103 471.85 438.103 408.153C438.103 344.456 386.467 292.82 322.77 292.82C259.073 292.82 207.437 344.456 207.437 408.153C207.437 471.85 259.073 523.486 322.77 523.486Z" stroke="#AEF9D1" stroke-dasharray="2 2"/>
<path opacity="0.3" d="M322.77 295.017C386.467 295.017 438.103 243.381 438.103 179.684C438.103 115.987 386.467 64.351 322.77 64.351C259.073 64.351 207.437 115.987 207.437 179.684C207.437 243.381 259.073 295.017 322.77 295.017Z" stroke="#AEF9D1" stroke-dasharray="2 2"/>
</g>
<defs>
<clipPath id="clip0_158_356">
<rect width="502" height="524" fill="white"/>
</clipPath>
</defs>
</svg>
