<svg width="20" height="20" viewBox="0 0 20 20" fill="none" xmlns="http://www.w3.org/2000/svg">
<path fill-rule="evenodd" clip-rule="evenodd" d="M10 0C4.47705 0 0 4.47656 0 10C0 15.5234 4.47705 20 10 20C15.5229 20 20 15.5234 20 10C20 4.47656 15.5229 0 10 0ZM7.66016 8.74219H4.02979H4V10.6641H7.64502L5.0498 13.0566L6.4751 14.418L10 11.0352L13.5249 14.4023L14.9502 13.0566L12.355 10.6641H16V8.72852H12.3701L14.9648 6.39258L13.54 5.01758L11.0801 7.41016V4H8.9502V7.41016L6.49023 5.01758L5.06494 6.39258L7.66016 8.74219ZM11.0952 13.4297H8.96484V18.0137H11.0952V13.4297Z" fill="#222222"/>
</svg>
