<svg width="19" height="19" viewBox="0 0 19 19" fill="none" xmlns="http://www.w3.org/2000/svg">
<path d="M17 15.0156L17 15.4302C17 16.5348 16.1046 17.4302 15 17.4302L3.00001 17.4302C1.89544 17.4302 1.00001 16.5348 1.00001 15.4302L1 3.97656C1 2.87199 1.89543 1.97656 3 1.97656L3.5 1.97656" stroke="black" stroke-width="2" stroke-linecap="round"/>
<path d="M5.28072 11.9049C4.88347 12.2886 4.88347 12.9106 5.28072 13.2943C5.67797 13.678 6.32203 13.678 6.71928 13.2943L5.28072 11.9049ZM18.0172 1.97521C18.0172 1.4326 17.5618 0.992731 17 0.992731L7.84505 0.992734C7.28326 0.992733 6.82784 1.43261 6.82784 1.97522C6.82784 2.51783 7.28326 2.9577 7.84505 2.9577L15.9828 2.9577L15.9828 10.8176C15.9828 11.3602 16.4382 11.8 17 11.8C17.5618 11.8 18.0172 11.3602 18.0172 10.8176L18.0172 1.97521ZM6.71928 13.2943L17.7193 2.66993L16.2807 1.28049L5.28072 11.9049L6.71928 13.2943Z" fill="black"/>
</svg>
