<svg width="71" height="71" viewBox="0 0 71 71" fill="none" xmlns="http://www.w3.org/2000/svg" xmlns:xlink="http://www.w3.org/1999/xlink">
<g clip-path="url(#clip0_4847_2607)">
<path d="M35.5 71C55.1061 71 71 55.1061 71 35.5C71 15.8939 55.1061 0 35.5 0C15.8939 0 0 15.8939 0 35.5C0 55.1061 15.8939 71 35.5 71Z" fill="#222222"/>
<path d="M44.5698 50.5837L49.5093 20H56.3011L61.1995 50.5837H54.6546L54.0372 44.9033H51.2381L50.6619 50.5837H44.5698ZM51.5674 40.5813H53.7491C53.5021 38.1527 53.2139 35.1478 53.0081 33.172C52.8846 32.1429 52.8023 31.155 52.72 30.2083H52.6377C52.5553 31.155 52.4319 32.1429 52.3495 33.172C52.1437 35.189 51.8556 38.1527 51.5674 40.5813Z" fill="white"/>
<path d="M28.6421 50.5843V20.124H34.5283C40.6615 20.124 44.4485 21.7705 44.4485 35.3541C44.4485 48.8554 40.5381 50.5843 34.5283 50.5843H28.6421ZM35.1458 45.192H35.5986C37.6567 45.192 37.8213 43.3397 37.8213 35.3541C37.8213 27.1628 37.6567 25.7221 35.5574 25.7221H35.1458V45.192Z" fill="white"/>
<path d="M12 50.5843V20.124H18.0097L19.2858 25.681C19.9855 28.6858 20.7676 32.1435 21.3027 35.2307H21.385C21.1792 31.8553 21.0969 28.8505 21.0969 26.0926V20.124H26.6539V50.5843H21.385L19.862 45.2743C18.9153 42.0225 17.9274 39.0588 17.3511 35.7246H17.2688C17.5158 38.0709 17.5569 42.8869 17.5569 44.9862V50.5843H12Z" fill="white"/>
<path d="M13 72H44V41H13V72Z" fill="url(#pattern0_4847_2607)"/>
</g>
<defs>
<pattern id="pattern0_4847_2607" patternContentUnits="objectBoundingBox" width="1" height="1">
<use xlink:href="#image0_4847_2607" transform="scale(0.00625)"/>
</pattern>
<clipPath id="clip0_4847_2607">
<rect width="71" height="71" rx="35.5" fill="white"/>
</clipPath>
</defs>
</svg>
