<svg width="20" height="20" viewBox="0 0 20 20" fill="none" xmlns="http://www.w3.org/2000/svg">
<g clip-path="url(#clip0_4813_2796)">
<path d="M14.7988 11.4922C14.7598 11.4735 13.3018 10.7555 13.0427 10.6623C12.9369 10.6243 12.8236 10.5872 12.7031 10.5872C12.5062 10.5872 12.3408 10.6853 12.212 10.878C12.0663 11.0945 11.6254 11.6099 11.4892 11.7639C11.4714 11.7842 11.4471 11.8085 11.4326 11.8085C11.4195 11.8085 11.1939 11.7156 11.1256 11.6859C9.56147 11.0065 8.37426 9.37265 8.21147 9.09713C8.18822 9.05752 8.18725 9.03954 8.18705 9.03954C8.19277 9.01856 8.24536 8.96584 8.27251 8.93863C8.35192 8.86006 8.43796 8.75649 8.52121 8.65629C8.56062 8.60882 8.6001 8.56129 8.63887 8.51649C8.75965 8.37597 8.81342 8.26687 8.87575 8.14051L8.90842 8.07486C9.06062 7.77246 8.93062 7.51726 8.88861 7.43486C8.85413 7.3659 8.23848 5.88006 8.17303 5.72395C8.01562 5.34726 7.80764 5.17188 7.51861 5.17188C7.49179 5.17188 7.51861 5.17187 7.40614 5.17662C7.26919 5.18239 6.52342 5.28058 6.19368 5.48843C5.844 5.70889 5.25244 6.41162 5.25244 7.64746C5.25244 8.75973 5.95829 9.80993 6.26134 10.2093C6.26887 10.2194 6.2827 10.2399 6.30277 10.2692C7.46335 11.9641 8.91017 13.2203 10.3769 13.8062C11.7889 14.3702 12.4575 14.4354 12.8376 14.4354H12.8377C12.9974 14.4354 13.1253 14.4228 13.2381 14.4117L13.3096 14.4049C13.7974 14.3617 14.8694 13.8062 15.1132 13.1286C15.3053 12.5949 15.3559 12.0118 15.2282 11.8002C15.1406 11.6563 14.9898 11.5839 14.7988 11.4922Z" fill="#222222"/>
<path d="M10.1775 0C4.76089 0 0.354141 4.37364 0.354141 9.74955C0.354141 11.4883 0.819465 13.1903 1.70096 14.6799L0.0137512 19.6569C-0.0176774 19.7497 0.0056992 19.8523 0.0743356 19.9221C0.123881 19.9727 0.191089 20 0.259725 20C0.286024 20 0.312517 19.996 0.338362 19.9878L5.52797 18.3387C6.9481 19.0975 8.55317 19.498 10.1776 19.498C15.5937 19.4981 20 15.1249 20 9.74955C20 4.37364 15.5937 0 10.1775 0ZM10.1775 17.4671C8.64901 17.4671 7.16856 17.0258 5.89596 16.1907C5.85317 16.1626 5.80349 16.1482 5.75349 16.1482C5.72706 16.1482 5.70057 16.1522 5.67479 16.1604L3.07511 16.9868L3.91434 14.5108C3.94148 14.4307 3.92791 14.3423 3.87791 14.274C2.90882 12.9499 2.39654 11.3854 2.39654 9.74955C2.39654 5.49351 5.88706 2.03091 10.1775 2.03091C14.4673 2.03091 17.9575 5.49351 17.9575 9.74955C17.9575 14.0051 14.4675 17.4671 10.1775 17.4671Z" fill="#222222"/>
</g>
<defs>
<clipPath id="clip0_4813_2796">
<rect width="20" height="20" fill="white"/>
</clipPath>
</defs>
</svg>
