<svg width="20" height="20" viewBox="0 0 20 20" fill="none" xmlns="http://www.w3.org/2000/svg">
<path fill-rule="evenodd" clip-rule="evenodd" d="M10 0C4.47715 0 0 4.47715 0 10C0 15.5228 4.47715 20 10 20C15.5228 20 20 15.5228 20 10C20 4.47715 15.5228 0 10 0ZM4.80082 8.28244H7.06704V15.0915H4.80082V8.28244ZM7.21623 6.17613C7.20152 5.50851 6.7241 5.00001 5.94884 5.00001C5.17358 5.00001 4.66674 5.50851 4.66674 6.17613C4.66674 6.82992 5.1586 7.35307 5.91942 7.35307H5.93391C6.7241 7.35307 7.21623 6.82992 7.21623 6.17613ZM12.6306 8.12255C14.1219 8.12255 15.2399 9.09594 15.2399 11.1874L15.2398 15.0915H12.9737V11.4486C12.9737 10.5336 12.6457 9.90927 11.8253 9.90927C11.1993 9.90927 10.8263 10.3302 10.6625 10.7367C10.6026 10.8824 10.5879 11.0854 10.5879 11.2889V15.0917H8.32143C8.32143 15.0917 8.3513 8.92155 8.32143 8.28262H10.5879V9.24707C10.8887 8.78344 11.4274 8.12255 12.6306 8.12255Z" fill="#222222"/>
</svg>
