<svg width="20" height="20" viewBox="0 0 20 20" fill="none" xmlns="http://www.w3.org/2000/svg">
<path fill-rule="evenodd" clip-rule="evenodd" d="M10 0C4.47715 0 0 4.47715 0 10C0 15.5228 4.47715 20 10 20C15.5228 20 20 15.5228 20 10C20 4.47715 15.5228 0 10 0ZM7.80139 4.69889C8.37029 4.673 8.55207 4.66667 10.0005 4.66667H9.99886C11.4478 4.66667 11.6289 4.673 12.1978 4.69889C12.7656 4.72489 13.1533 4.81478 13.4933 4.94667C13.8445 5.08279 14.1411 5.26501 14.4378 5.56168C14.7345 5.85813 14.9167 6.15569 15.0534 6.50647C15.1845 6.84558 15.2745 7.23314 15.3011 7.80093C15.3267 8.36982 15.3334 8.5516 15.3334 10.0001C15.3334 11.4485 15.3267 11.6299 15.3011 12.1988C15.2745 12.7663 15.1845 13.154 15.0534 13.4932C14.9167 13.8439 14.7345 14.1414 14.4378 14.4379C14.1415 14.7346 13.8443 14.9172 13.4937 15.0534C13.1543 15.1853 12.7663 15.2752 12.1986 15.3012C11.6297 15.3271 11.4484 15.3335 9.99986 15.3335C8.55151 15.3335 8.36984 15.3271 7.80095 15.3012C7.23328 15.2752 6.84561 15.1853 6.50627 15.0534C6.15571 14.9172 5.85815 14.7346 5.56182 14.4379C5.26526 14.1414 5.08303 13.8439 4.9467 13.4931C4.81492 13.154 4.72503 12.7664 4.69892 12.1986C4.67314 11.6297 4.66669 11.4485 4.66669 10.0001C4.66669 8.5516 4.67336 8.36971 4.69881 7.80082C4.72436 7.23325 4.81436 6.84558 4.94659 6.50636C5.08325 6.15569 5.26548 5.85813 5.56215 5.56168C5.8586 5.26512 6.15615 5.0829 6.50694 4.94667C6.84605 4.81478 7.23361 4.72489 7.80139 4.69889Z" fill="#222222"/>
<path fill-rule="evenodd" clip-rule="evenodd" d="M9.52211 5.62829C9.61502 5.62814 9.71495 5.62819 9.8228 5.62823L10.0006 5.62829C11.4246 5.62829 11.5934 5.6334 12.1557 5.65895C12.6757 5.68273 12.9579 5.76962 13.1459 5.84262C13.3948 5.93929 13.5723 6.05485 13.7588 6.24152C13.9455 6.42818 14.061 6.60596 14.1579 6.85485C14.2309 7.04263 14.3179 7.32486 14.3416 7.84487C14.3672 8.40709 14.3727 8.57598 14.3727 9.99933C14.3727 11.4227 14.3672 11.5916 14.3416 12.1538C14.3178 12.6738 14.2309 12.956 14.1579 13.1438C14.0613 13.3927 13.9455 13.5699 13.7588 13.7565C13.5722 13.9432 13.3949 14.0587 13.1459 14.1554C12.9581 14.2287 12.6757 14.3154 12.1557 14.3392C11.5935 14.3647 11.4246 14.3703 10.0006 14.3703C8.57644 14.3703 8.40766 14.3647 7.84543 14.3392C7.32542 14.3152 7.0432 14.2283 6.85509 14.1553C6.60619 14.0586 6.42842 13.943 6.24175 13.7564C6.05508 13.5697 5.93952 13.3924 5.84263 13.1434C5.76963 12.9556 5.68263 12.6734 5.65896 12.1534C5.63341 11.5911 5.6283 11.4222 5.6283 9.998C5.6283 8.57376 5.63341 8.40576 5.65896 7.84353C5.68274 7.32353 5.76963 7.0413 5.84263 6.8533C5.9393 6.60441 6.05508 6.42663 6.24175 6.23996C6.42842 6.05329 6.60619 5.93773 6.85509 5.84084C7.04309 5.76751 7.32542 5.68084 7.84543 5.65695C8.33743 5.63473 8.5281 5.62806 9.52211 5.62695V5.62829ZM12.8474 6.51384C12.4941 6.51384 12.2074 6.80018 12.2074 7.15363C12.2074 7.50696 12.4941 7.79363 12.8474 7.79363C13.2008 7.79363 13.4874 7.50696 13.4874 7.15363C13.4874 6.80029 13.2008 6.51362 12.8474 6.51362V6.51384ZM7.26155 10.0005C7.26155 8.48802 8.48783 7.26169 10.0004 7.26163C11.5129 7.26163 12.7389 8.48798 12.7389 10.0005C12.7389 11.5131 11.513 12.7389 10.0005 12.7389C8.48789 12.7389 7.26155 11.5131 7.26155 10.0005Z" fill="#222222"/>
<path d="M10.0005 8.22266C10.9823 8.22266 11.7783 9.01855 11.7783 10.0005C11.7783 10.9822 10.9823 11.7782 10.0005 11.7782C9.01861 11.7782 8.22272 10.9822 8.22272 10.0005C8.22272 9.01855 9.01861 8.22266 10.0005 8.22266V8.22266Z" fill="#222222"/>
</svg>
