<svg width="71" height="71" viewBox="0 0 71 71" fill="none" xmlns="http://www.w3.org/2000/svg">
<path d="M35.5 71C55.1061 71 71 55.1061 71 35.5C71 15.8939 55.1061 0 35.5 0C15.8939 0 0 15.8939 0 35.5C0 55.1061 15.8939 71 35.5 71Z" fill="#222222"/>
<path d="M38.778 41.0473C39.1685 41.4379 39.1685 42.071 38.778 42.4616C38.3875 42.8521 37.7543 42.8521 37.3638 42.4616L31.7069 36.8047C31.3164 36.4142 31.3164 35.781 31.7069 35.3905C32.0974 35 32.7306 35 33.1211 35.3905L38.778 41.0473Z" fill="#AEF9D1"/>
<path d="M38.778 31.1211C39.1685 30.7306 39.1685 30.0974 38.778 29.7069C38.3875 29.3164 37.7543 29.3164 37.3638 29.7069L31.7069 35.3638C31.3164 35.7543 31.3164 36.3875 31.7069 36.778C32.0974 37.1685 32.7306 37.1685 33.1211 36.778L38.778 31.1211Z" fill="#AEF9D1"/>
</svg>
