<svg width="480" height="320" viewBox="0 0 480 320" fill="none" xmlns="http://www.w3.org/2000/svg">
<path d="M454 2H26C12.7452 2 2 12.7452 2 26V294C2 307.255 12.7452 318 26 318H454C467.255 318 478 307.255 478 294V26C478 12.7452 467.255 2 454 2Z" fill="white"/>
<path d="M364 74H116C107.163 74 100 81.1634 100 90V230C100 238.837 107.163 246 116 246H364C372.837 246 380 238.837 380 230V90C380 81.1634 372.837 74 364 74Z" stroke="#191C1F" stroke-width="3"/>
<path d="M100 106H380" stroke="#191C1F" stroke-width="3"/>
<path d="M120 94C122.209 94 124 92.2091 124 90C124 87.7909 122.209 86 120 86C117.791 86 116 87.7909 116 90C116 92.2091 117.791 94 120 94Z" fill="#191C1F"/>
<path d="M136 94C138.209 94 140 92.2091 140 90C140 87.7909 138.209 86 136 86C133.791 86 132 87.7909 132 90C132 92.2091 133.791 94 136 94Z" fill="#191C1F"/>
<path d="M152 94C154.209 94 156 92.2091 156 90C156 87.7909 154.209 86 152 86C149.791 86 148 87.7909 148 90C148 92.2091 149.791 94 152 94Z" fill="#191C1F"/>
<path d="M132 216V184" stroke="#16B585" stroke-width="8" stroke-linecap="round"/>
<path d="M156 216V160" stroke="#16B585" stroke-width="8" stroke-linecap="round"/>
<path d="M180 216V196" stroke="#16B585" stroke-width="8" stroke-linecap="round"/>
<path d="M204 216V172" stroke="#16B585" stroke-width="8" stroke-linecap="round"/>
<path d="M244 200L268 176L292 188L316 152L344 164" stroke="#16B585" stroke-width="3" stroke-linecap="round" stroke-linejoin="round"/>
<path d="M312 158C323.046 158 332 149.046 332 138C332 126.954 323.046 118 312 118C300.954 118 292 126.954 292 138C292 149.046 300.954 158 312 158Z" stroke="#191C1F" stroke-width="6"/>
<path d="M312 118C315.568 117.877 319.104 118.712 322.24 120.418C325.377 122.123 327.999 124.637 329.836 127.698C331.673 130.76 332.657 134.257 332.686 137.827C332.714 141.397 331.787 144.909 330 148" stroke="#16B585" stroke-width="6" stroke-linecap="round"/>
</svg>
