<svg width="480" height="320" viewBox="0 0 480 320" fill="none" xmlns="http://www.w3.org/2000/svg">
<path d="M454 2H26C12.7452 2 2 12.7452 2 26V294C2 307.255 12.7452 318 26 318H454C467.255 318 478 307.255 478 294V26C478 12.7452 467.255 2 454 2Z" fill="white"/>
<path d="M96 124C96 112 122 104 148 104C174 104 200 112 200 124V196C200 208 174 216 148 216C122 216 96 208 96 196V124Z" stroke="#191C1F" stroke-width="3"/>
<path d="M96 124C96 136 122 144 148 144C174 144 200 136 200 124" stroke="#191C1F" stroke-width="3"/>
<path d="M96 160C96 172 122 180 148 180C174 180 200 172 200 160" stroke="#191C1F" stroke-width="3"/>
<path d="M200 160H356" stroke="#16B585" stroke-width="3" stroke-linecap="round"/>
<path d="M244 168C248.418 168 252 164.418 252 160C252 155.582 248.418 152 244 152C239.582 152 236 155.582 236 160C236 164.418 239.582 168 244 168Z" fill="#16B585"/>
<path d="M284 168C288.418 168 292 164.418 292 160C292 155.582 288.418 152 284 152C279.582 152 276 155.582 276 160C276 164.418 279.582 168 284 168Z" fill="#16B585"/>
<path d="M324 168C328.418 168 332 164.418 332 160C332 155.582 328.418 152 324 152C319.582 152 316 155.582 316 160C316 164.418 319.582 168 324 168Z" fill="#16B585"/>
<path d="M346 148L362 160L346 172" stroke="#16B585" stroke-width="3" stroke-linecap="round" stroke-linejoin="round"/>
<path d="M388 128H368C361.373 128 356 133.373 356 140V180C356 186.627 361.373 192 368 192H388C394.627 192 400 186.627 400 180V140C400 133.373 394.627 128 388 128Z" stroke="#191C1F" stroke-width="3"/>
</svg>
