<svg width="480" height="320" viewBox="0 0 480 320" fill="none" xmlns="http://www.w3.org/2000/svg">
<path d="M454 2H26C12.7452 2 2 12.7452 2 26V294C2 307.255 12.7452 318 26 318H454C467.255 318 478 307.255 478 294V26C478 12.7452 467.255 2 454 2Z" fill="white"/>
<path d="M120 110H198V140C203.304 140 208.391 142.107 212.142 145.858C215.893 149.609 218 154.696 218 160C218 165.304 215.893 170.391 212.142 174.142C208.391 177.893 203.304 180 198 180V210H120V110Z" stroke="#16B585" stroke-width="3" stroke-linejoin="round"/>
<path d="M282 110H360V210H282V180C287.304 180 292.391 177.893 296.142 174.142C299.893 170.391 302 165.304 302 160C302 154.696 299.893 149.609 296.142 145.858C292.391 142.107 287.304 140 282 140V110Z" stroke="#191C1F" stroke-width="3" stroke-linejoin="round"/>
<path d="M240 166C243.314 166 246 163.314 246 160C246 156.686 243.314 154 240 154C236.686 154 234 156.686 234 160C234 163.314 236.686 166 240 166Z" fill="#16B585"/>
</svg>
