<svg width="480" height="320" viewBox="0 0 480 320" fill="none" xmlns="http://www.w3.org/2000/svg">
<path d="M454 2H26C12.7452 2 2 12.7452 2 26V294C2 307.255 12.7452 318 26 318H454C467.255 318 478 307.255 478 294V26C478 12.7452 467.255 2 454 2Z" fill="white"/>
<path d="M150 85C153.866 85 157 81.866 157 78C157 74.134 153.866 71 150 71C146.134 71 143 74.134 143 78C143 81.866 146.134 85 150 85Z" fill="#191C1F"/>
<path d="M188 77C191.866 77 195 73.866 195 70C195 66.134 191.866 63 188 63C184.134 63 181 66.134 181 70C181 73.866 184.134 77 188 77Z" fill="#16B585"/>
<path d="M226 81C229.866 81 233 77.866 233 74C233 70.134 229.866 67 226 67C222.134 67 219 70.134 219 74C219 77.866 222.134 81 226 81Z" fill="#191C1F"/>
<path d="M264 77C267.866 77 271 73.866 271 70C271 66.134 267.866 63 264 63C260.134 63 257 66.134 257 70C257 73.866 260.134 77 264 77Z" fill="#16B585"/>
<path d="M300 85C303.866 85 307 81.866 307 78C307 74.134 303.866 71 300 71C296.134 71 293 74.134 293 78C293 81.866 296.134 85 300 85Z" fill="#191C1F"/>
<path d="M132 104H318L252 192V236L198 256V192L132 104Z" stroke="#16B585" stroke-width="3" stroke-linejoin="round"/>
<path d="M225 297C229.971 297 234 292.971 234 288C234 283.029 229.971 279 225 279C220.029 279 216 283.029 216 288C216 292.971 220.029 297 225 297Z" fill="#16B585"/>
<path d="M356 252V150" stroke="#191C1F" stroke-width="3" stroke-linecap="round"/>
<path d="M338 170L356 150L374 170" stroke="#191C1F" stroke-width="3" stroke-linecap="round" stroke-linejoin="round"/>
</svg>
