<svg width="480" height="320" viewBox="0 0 480 320" fill="none" xmlns="http://www.w3.org/2000/svg">
<path d="M454 2H26C12.7452 2 2 12.7452 2 26V294C2 307.255 12.7452 318 26 318H454C467.255 318 478 307.255 478 294V26C478 12.7452 467.255 2 454 2Z" fill="white"/>
<path d="M386 68H262C252.059 68 244 76.0589 244 86V142C244 151.941 252.059 160 262 160H386C395.941 160 404 151.941 404 142V86C404 76.0589 395.941 68 386 68Z" stroke="#16B585" stroke-width="3"/>
<path d="M286 160V188L316 160" stroke="#16B585" stroke-width="3" stroke-linecap="round" stroke-linejoin="round"/>
<path d="M288 121C291.866 121 295 117.866 295 114C295 110.134 291.866 107 288 107C284.134 107 281 110.134 281 114C281 117.866 284.134 121 288 121Z" fill="#16B585"/>
<path d="M324 121C327.866 121 331 117.866 331 114C331 110.134 327.866 107 324 107C320.134 107 317 110.134 317 114C317 117.866 320.134 121 324 121Z" fill="#16B585"/>
<path d="M360 121C363.866 121 367 117.866 367 114C367 110.134 363.866 107 360 107C356.134 107 353 110.134 353 114C353 117.866 356.134 121 360 121Z" fill="#16B585"/>
<path d="M148 158V134" stroke="#191C1F" stroke-width="3" stroke-linecap="round"/>
<path d="M148 135C151.866 135 155 131.866 155 128C155 124.134 151.866 121 148 121C144.134 121 141 124.134 141 128C141 131.866 144.134 135 148 135Z" fill="#191C1F"/>
<path d="M188 158H108C95.8497 158 86 167.85 86 180V240C86 252.15 95.8497 262 108 262H188C200.15 262 210 252.15 210 240V180C210 167.85 200.15 158 188 158Z" stroke="#191C1F" stroke-width="3"/>
<path d="M124 215C128.971 215 133 210.971 133 206C133 201.029 128.971 197 124 197C119.029 197 115 201.029 115 206C115 210.971 119.029 215 124 215Z" fill="#16B585"/>
<path d="M172 215C176.971 215 181 210.971 181 206C181 201.029 176.971 197 172 197C167.029 197 163 201.029 163 206C163 210.971 167.029 215 172 215Z" fill="#16B585"/>
<path d="M124 232C140 242.667 156 242.667 172 232" stroke="#191C1F" stroke-width="3" stroke-linecap="round"/>
</svg>
